SplineFontDB: 3.2
FontName: Typeface
FullName: Typeface
FamilyName: Typeface
Weight: Book
Copyright: SIL Open Font License
Version: 1.0
ItalicAngle: 0
UnderlinePosition: -119
UnderlineWidth: 35
Ascent: 819
Descent: 205
InvalidEm: 0
sfntRevision: 0x00010000
LayerCount: 2
Layer: 0 1 "Back" 1
Layer: 1 1 "Fore" 0
XUID: [1021 636 1925729231 6499976]
StyleMap: 0x0040
FSType: 0
OS2Version: 2
OS2_WeightWidthSlopeOnly: 0
OS2_UseTypoMetrics: 0
CreationTime: 1615871022
ModificationTime: 1617993050
PfmFamily: 81
TTFWeight: 400
TTFWidth: 5
LineGap: 102
VLineGap: 0
Panose: 0 0 0 0 0 0 0 0 0 0
OS2TypoAscent: 737
OS2TypoAOffset: 0
OS2TypoDescent: 0
OS2TypoDOffset: 0
OS2TypoLinegap: 102
OS2WinAscent: 737
OS2WinAOffset: 0
OS2WinDescent: 0
OS2WinDOffset: 0
HheadAscent: 737
HheadAOffset: 0
HheadDescent: 0
HheadDOffset: 0
OS2SubXSize: 650
OS2SubYSize: 700
OS2SubXOff: 47
OS2SubYOff: 140
OS2SupXSize: 650
OS2SupYSize: 700
OS2SupXOff: -164
OS2SupYOff: 480
OS2StrikeYSize: 49
OS2StrikeYPos: 258
OS2CapHeight: 737
OS2XHeight: 737
OS2Vendor: 'Bird'
OS2CodePages: 00000001.00000000
OS2UnicodeRanges: 00000001.00000000.00000000.00000000
Lookup: 265 0 0 "'kern' Horizontal Kerning lookup 0" { } [' RQD' ('DFLT' <'dflt' > ) 'kern' ('DFLT' <'dflt' > ) ]
DEI: 91125
ShortTable: maxp 16
  1
  0
  58
  436
  13
  0
  0
  1
  0
  0
  0
  0
  0
  0
  0
  0
EndShort
LangName: 1033 "" "" "Regular" "Typeface" "" "Version 1.0" "" "" "" "" "" "" "" "SIL Open Font License" "http://scripts.sil.org/OFL"
GaspTable: 1 65535 2 0
Encoding: UnicodeFull
UnicodeInterp: none
NameList: AGL For New Fonts
DisplaySize: -48
AntiAlias: 1
FitToEm: 0
WinInfo: 15 15 9
BeginChars: 1114113 60

StartChar: .notdef
Encoding: 1114112 -1 0
Width: 737
Flags: W
LayerCount: 2
Fore
SplineSet
-154 102 m 1,0,1
 -77 102 -77 102 154 102 c 1,2,3
 154 236 154 236 154 635 c 1,4,5
 77 635 77 635 -154 635 c 1,6,7
 -154 502 -154 502 -154 102 c 1,0,1
-205 686 m 1,8,9
 -102 686 -102 686 205 686 c 1,10,11
 205 527 205 527 205 51 c 1,12,13
 102 51 102 51 -205 51 c 1,14,15
 -205 210 -205 210 -205 686 c 1,8,9
EndSplineSet
Validated: 1
EndChar

StartChar: percent
Encoding: 37 37 4
Width: 737
Flags: W
LayerCount: 2
Fore
SplineSet
142 152 m 1,0,1
 139 182 139 182 145 214 c 0,2,3
 151 247 151 247 166 275 c 1,4,5
 128 275 128 275 87 268 c 0,6,7
 46 262 46 262 6 252 c 1,8,9
 38 292 38 292 66 314 c 0,10,11
 95 336 95 336 133 352 c 1,12,13
 104 372 104 372 72 389 c 256,14,15
 40 406 40 406 3 410 c 1,16,17
 48 440 48 440 93 457 c 0,18,19
 139 474 139 474 190 473 c 1,20,21
 170 491 170 491 144 507 c 0,22,23
 117 523 117 523 85 533 c 1,24,25
 123 547 123 547 163 549 c 0,26,27
 202 551 202 551 243 543 c 1,28,29
 238 570 238 570 226 598 c 0,30,31
 214 627 214 627 193 654 c 1,32,33
 225 640 225 640 256 617 c 0,34,35
 286 595 286 595 310 571 c 1,36,37
 304 561 304 561 301 547 c 256,38,39
 298 533 298 533 297 519 c 1,40,41
 306 518 306 518 322 517 c 1,42,43
 324 562 324 562 362 610 c 0,44,45
 399 657 399 657 447 676 c 1,46,47
 440 632 440 632 426 543 c 1,48,49
 472 524 472 524 502 494 c 0,50,51
 531 463 531 463 550 429 c 1,52,53
 596 406 596 406 644 380 c 0,54,55
 693 354 693 354 733 323 c 1,56,57
 721 311 721 311 698 288 c 1,58,59
 681 282 681 282 646 270 c 1,60,61
 649 282 649 282 657 306 c 1,62,63
 640 301 640 301 606 290 c 1,64,65
 610 302 610 302 619 326 c 1,66,67
 603 320 603 320 569 310 c 1,68,69
 574 323 574 323 582 348 c 1,70,71
 565 342 565 342 531 330 c 1,72,73
 535 343 535 343 543 368 c 1,74,75
 524 358 524 358 485 337 c 1,76,77
 477 326 477 326 469 314 c 0,78,79
 461 303 461 303 454 291 c 1,80,81
 470 297 470 297 504 309 c 1,82,83
 500 296 500 296 491 270 c 1,84,85
 508 276 508 276 542 288 c 1,86,87
 538 276 538 276 531 253 c 1,88,89
 547 258 547 258 578 269 c 1,90,91
 575 256 575 256 567 232 c 1,92,93
 584 237 584 237 618 248 c 1,94,95
 614 237 614 237 607 216 c 1,96,97
 591 207 591 207 559 190 c 1,98,99
 507 222 507 222 426 259 c 256,100,101
 345 296 345 296 262 306 c 1,102,103
 283 326 283 326 324 365 c 1,104,105
 314 376 314 376 301 385 c 0,106,107
 288 395 288 395 272 399 c 1,108,109
 297 414 297 414 347 443 c 1,110,111
 343 450 343 450 334 465 c 1,112,113
 291 440 291 440 204 390 c 1,114,115
 226 385 226 385 246 380 c 256,116,117
 266 375 266 375 286 365 c 1,118,119
 257 338 257 338 201 284 c 1,120,121
 221 282 221 282 241 283 c 0,122,123
 261 283 261 283 278 278 c 1,124,125
 241 256 241 256 205 224 c 256,126,127
 169 192 169 192 142 152 c 1,0,1
522 428 m 1,128,129
 512 445 512 445 495 461 c 0,130,131
 477 478 477 478 463 484 c 1,132,133
 460 466 460 466 464 452 c 0,134,135
 468 437 468 437 478 423 c 1,136,137
 490 418 490 418 502 419 c 0,138,139
 513 420 513 420 522 428 c 1,128,129
EndSplineSet
Validated: 33
EndChar

StartChar: ampersand
Encoding: 38 38 5
Width: 737
Flags: W
LayerCount: 2
Fore
SplineSet
107 3 m 1,0,1
 129 34 129 34 146 67 c 0,2,3
 162 100 162 100 169 133 c 0,4,5
 182 194 182 194 158 251 c 0,6,7
 134 307 134 307 57 343 c 0,8,9
 19 361 19 361 8 397 c 0,10,11
 4 407 4 407 4 417 c 0,12,13
 4 445 4 445 25 476 c 0,14,15
 53 514 53 514 92 511 c 0,16,17
 130 509 130 509 154 487 c 1,18,19
 216 443 216 443 242 385 c 256,20,21
 268 327 268 327 273 278 c 0,22,23
 279 199 279 199 243 123 c 256,24,25
 207 47 207 47 107 3 c 1,0,1
268 596 m 0,26,27
 367 582 367 582 438 519 c 256,28,29
 509 456 509 456 537 391 c 0,30,31
 564 318 564 318 562 240 c 0,32,33
 561 163 561 163 497 75 c 1,34,35
 508 233 508 233 441 319 c 256,36,37
 374 405 374 405 265 403 c 1,38,39
 244 438 244 438 210 478 c 256,40,41
 176 518 176 518 128 535 c 1,42,43
 146 572 146 572 178 587 c 0,44,45
 211 602 211 602 268 596 c 0,26,27
249 627 m 1,46,47
 246 668 246 668 273 695 c 0,48,49
 301 721 301 721 339 729 c 0,50,51
 375 734 375 734 409 734 c 0,52,53
 451 734 451 734 490 726 c 0,54,55
 559 713 559 713 640 642 c 1,56,57
 702 575 702 575 723 503 c 0,58,59
 732 474 732 474 732 440 c 0,60,61
 732 390 732 390 714 328 c 1,62,63
 682 463 682 463 609 524 c 0,64,65
 535 585 535 585 430 562 c 1,66,67
 390 589 390 589 342 606 c 0,68,69
 295 623 295 623 249 627 c 1,46,47
EndSplineSet
Validated: 33
EndChar

StartChar: parenleft
Encoding: 40 40 6
Width: 737
Flags: W
LayerCount: 2
Fore
SplineSet
613 699 m 1,0,1
 625 702 625 702 634 702 c 0,2,3
 638 702 638 702 642 701 c 0,4,5
 652 699 652 699 658 693 c 0,6,7
 669 682 669 682 668 666 c 0,8,9
 666 651 666 651 666 651 c 1,10,11
 666 652 666 652 659 643 c 0,12,13
 651 634 651 634 646 628 c 1,14,15
 699 542 699 542 723 463 c 0,16,17
 737 419 737 419 737 374 c 0,18,19
 737 336 737 336 728 298 c 0,20,21
 717 252 717 252 692 202 c 0,22,23
 666 153 666 153 624 99 c 0,24,25
 617 93 617 93 610 95 c 0,26,27
 603 98 603 98 607 108 c 0,28,29
 644 210 644 210 626 318 c 0,30,31
 607 425 607 425 535 515 c 1,32,33
 376 359 376 359 60 45 c 0,34,35
 50 37 50 37 39 37 c 0,36,37
 26 37 26 37 12 49 c 0,38,39
 0 61 0 61 -1 73 c 0,40,41
 -1 84 -1 84 11 95 c 0,42,43
 211 296 211 296 613 699 c 1,0,1
EndSplineSet
Validated: 33
EndChar

StartChar: parenright
Encoding: 41 41 7
Width: 737
Flags: W
LayerCount: 2
Fore
SplineSet
86 154 m 1,0,1
 59 168 59 168 40 182 c 256,2,3
 21 196 21 196 23 231 c 1,4,5
 17 240 17 240 4 260 c 1,6,7
 14 258 14 258 32 256 c 1,8,9
 50 273 50 273 71 286 c 0,10,11
 93 300 93 300 109 310 c 0,12,13
 123 321 123 321 132 334 c 256,14,15
 141 347 141 347 147 363 c 0,16,17
 154 381 154 381 170 402 c 256,18,19
 186 423 186 423 244 450 c 0,20,21
 254 454 254 454 266 460 c 256,22,23
 278 466 278 466 283 470 c 1,24,25
 266 513 266 513 304 556 c 0,26,27
 342 600 342 600 427 636 c 0,28,29
 435 637 435 637 437 634 c 0,30,31
 439 632 439 632 437 629 c 0,32,33
 388 590 388 590 351 563 c 0,34,35
 314 535 314 535 336 495 c 1,36,37
 355 544 355 544 388 561 c 0,38,39
 421 579 421 579 472 583 c 0,40,41
 516 587 516 587 548 599 c 0,42,43
 579 611 579 611 592 650 c 1,44,45
 592 600 592 600 574 567 c 256,46,47
 556 534 556 534 500 508 c 0,48,49
 468 492 468 492 444 471 c 256,50,51
 420 450 420 450 407 425 c 1,52,53
 465 466 465 466 511 473 c 0,54,55
 557 481 557 481 634 431 c 0,56,57
 655 416 655 416 680 403 c 0,58,59
 706 389 706 389 734 395 c 1,60,61
 704 375 704 375 674 379 c 256,62,63
 644 383 644 383 617 395 c 0,64,65
 569 414 569 414 528 407 c 256,66,67
 487 400 487 400 448 346 c 1,68,69
 483 359 483 359 515 358 c 0,70,71
 547 356 547 356 577 345 c 0,72,73
 600 337 600 337 626 334 c 0,74,75
 652 330 652 330 674 331 c 1,76,77
 652 312 652 312 623 307 c 0,78,79
 595 303 595 303 560 303 c 0,80,81
 519 305 519 305 494 290 c 0,82,83
 469 276 469 276 466 249 c 0,84,85
 462 216 462 216 444 203 c 0,86,87
 426 189 426 189 389 188 c 0,88,89
 349 183 349 183 334 172 c 0,90,91
 318 161 318 161 314 148 c 0,92,93
 311 115 311 115 299 93 c 256,94,95
 287 71 287 71 271 49 c 1,96,97
 240 53 240 53 211 68 c 256,98,99
 182 83 182 83 192 134 c 0,100,101
 195 139 195 139 199 139 c 0,102,103
 203 138 203 138 203 134 c 0,104,105
 200 115 200 115 207 108 c 256,106,107
 214 101 214 101 227 121 c 1,108,109
 214 129 214 129 218 141 c 256,110,111
 222 153 222 153 222 164 c 1,112,113
 230 148 230 148 237 141 c 0,114,115
 245 133 245 133 253 133 c 1,116,117
 273 174 273 174 287 215 c 0,118,119
 302 257 302 257 291 285 c 1,120,121
 253 275 253 275 215 259 c 0,122,123
 177 244 177 244 142 222 c 1,124,125
 151 197 151 197 170 146 c 1,126,127
 146 162 146 162 96 196 c 0,128,129
 90 196 90 196 76 194 c 1,130,131
 79 181 79 181 86 154 c 1,0,1
81 244 m 1,132,133
 91 248 91 248 97 245 c 0,134,135
 104 242 104 242 111 237 c 1,136,137
 109 249 109 249 105 274 c 1,138,139
 97 264 97 264 81 244 c 1,132,133
284 389 m 1,140,141
 241 388 241 388 221 365 c 0,142,143
 200 343 200 343 196 305 c 1,144,145
 210 312 210 312 239 327 c 1,146,147
 242 339 242 339 254 358 c 0,148,149
 267 378 267 378 284 389 c 1,140,141
EndSplineSet
Validated: 33
EndChar

StartChar: plus
Encoding: 43 43 8
Width: 737
Flags: W
LayerCount: 2
Fore
SplineSet
369 39 m 1,0,1
 303 101 303 101 232 162 c 256,2,3
 161 223 161 223 94 288 c 0,4,5
 50 331 50 331 28 388 c 256,6,7
 6 445 6 445 8 504 c 0,8,9
 7 510 7 510 7 516 c 0,10,11
 7 540 7 540 14 563 c 0,12,13
 23 591 23 591 39 615 c 0,14,15
 70 660 70 660 122 684 c 0,16,17
 158 700 158 700 195 701 c 0,18,19
 212 701 212 701 230 697 c 0,20,21
 267 690 267 690 303 665 c 0,22,23
 338 639 338 639 368 592 c 1,24,25
 402 644 402 644 443 669 c 0,26,27
 485 695 485 695 527 699 c 0,28,29
 606 707 606 707 668 652 c 256,30,31
 730 597 730 597 730 508 c 0,32,33
 730 506 730 506 730 504 c 0,34,35
 728 415 728 415 701 366 c 0,36,37
 673 317 673 317 612 255 c 1,38,39
 556 205 556 205 492 149 c 0,40,41
 428 92 428 92 369 39 c 1,0,1
EndSplineSet
Validated: 33
EndChar

StartChar: comma
Encoding: 44 44 9
Width: 737
Flags: W
LayerCount: 2
Fore
SplineSet
425 735 m 0,0,1
 437 735 437 735 443 728 c 256,2,3
 449 721 449 721 447 709 c 0,4,5
 443 695 443 695 437 667 c 1,6,7
 446 667 446 667 465 667 c 0,8,9
 476 667 476 667 486 659 c 0,10,11
 495 651 495 651 496 638 c 0,12,13
 496 629 496 629 495 612 c 0,14,15
 495 600 495 600 485 592 c 0,16,17
 476 583 476 583 465 584 c 0,18,19
 461 584 461 584 452 584 c 1,20,21
 451 565 451 565 463 555 c 0,22,23
 474 545 474 545 486 543 c 0,24,25
 545 512 545 512 584 467 c 256,26,27
 623 422 623 422 638 360 c 0,28,29
 649 322 649 322 649 282 c 0,30,31
 649 259 649 259 645 235 c 0,32,33
 635 171 635 171 590 113 c 0,34,35
 548 62 548 62 493 34 c 0,36,37
 439 6 439 6 373 5 c 0,38,39
 369 5 369 5 365 5 c 0,40,41
 310 5 310 5 263 26 c 0,42,43
 212 48 212 48 171 84 c 1,44,45
 124 138 124 138 100 197 c 0,46,47
 86 232 86 232 86 278 c 0,48,49
 86 310 86 310 92 347 c 0,50,51
 106 411 106 411 149 465 c 0,52,53
 192 518 192 518 258 546 c 0,54,55
 271 550 271 550 278 560 c 256,56,57
 285 570 285 570 283 583 c 1,58,59
 277 583 277 583 263 583 c 0,60,61
 254 584 254 584 246 593 c 0,62,63
 238 603 238 603 236 615 c 0,64,65
 237 622 237 622 238 638 c 0,66,67
 239 649 239 649 246 657 c 0,68,69
 253 666 253 666 267 667 c 0,70,71
 277 667 277 667 296 667 c 1,72,73
 293 679 293 679 287 704 c 0,74,75
 285 717 285 717 288 726 c 0,76,77
 291 734 291 734 305 735 c 0,78,79
 345 735 345 735 425 735 c 0,0,1
180 364 m 0,80,81
 177 351 177 351 183 344 c 0,82,83
 188 336 188 336 201 337 c 0,84,85
 313 337 313 337 536 338 c 0,86,87
 550 338 550 338 554 345 c 0,88,89
 558 353 558 353 553 365 c 0,90,91
 532 415 532 415 482 452 c 256,92,93
 432 489 432 489 367 488 c 0,94,95
 305 489 305 489 255 454 c 0,96,97
 206 420 206 420 180 364 c 0,80,81
EndSplineSet
Validated: 33
EndChar

StartChar: zero
Encoding: 48 48 10
Width: 737
Flags: W
LayerCount: 2
Fore
SplineSet
148 25 m 0,0,1
 135 24 135 24 129 34 c 0,2,3
 123 43 123 43 125 58 c 0,4,5
 128 73 128 73 131 89 c 0,6,7
 135 105 135 105 142 119 c 0,8,9
 151 142 151 142 165 157 c 0,10,11
 180 172 180 172 195 171 c 0,12,13
 250 171 250 171 362 172 c 1,14,15
 362 165 362 165 362 150 c 1,16,17
 352 115 352 115 331 43 c 0,18,19
 328 33 328 33 320 28 c 0,20,21
 313 23 313 23 301 23 c 0,22,23
 250 24 250 24 148 25 c 0,0,1
187 197 m 1,24,25
 161 267 161 267 149 341 c 0,26,27
 138 415 138 415 138 483 c 1,28,29
 151 484 151 484 159 490 c 0,30,31
 168 496 168 496 174 506 c 0,32,33
 189 526 189 526 208 543 c 0,34,35
 226 561 226 561 244 571 c 0,36,37
 253 576 253 576 259 584 c 256,38,39
 265 592 265 592 269 601 c 1,40,41
 291 590 291 590 312 585 c 0,42,43
 334 580 334 580 356 579 c 1,44,45
 356 451 356 451 356 196 c 1,46,47
 300 197 300 197 187 197 c 1,24,25
20 541 m 0,48,49
 12 540 12 540 7 543 c 0,50,51
 3 545 3 545 3 551 c 0,52,53
 3 554 3 554 4 558 c 0,54,55
 17 601 17 601 50 628 c 0,56,57
 82 655 82 655 124 662 c 0,58,59
 137 665 137 665 150 665 c 0,60,61
 156 665 156 665 162 664 c 0,62,63
 180 661 180 661 201 654 c 0,64,65
 213 649 213 649 221 643 c 0,66,67
 230 638 230 638 239 628 c 0,68,69
 246 616 246 616 245 608 c 0,70,71
 244 599 244 599 233 595 c 0,72,73
 211 580 211 580 192 562 c 0,74,75
 173 545 173 545 158 525 c 0,76,77
 149 513 149 513 141 510 c 0,78,79
 133 506 133 506 123 507 c 0,80,81
 117 511 117 511 106 520 c 0,82,83
 88 537 88 537 69 541 c 0,84,85
 50 544 50 544 20 541 c 0,48,49
629 519 m 0,86,87
 617 505 617 505 606 507 c 0,88,89
 594 509 594 509 579 525 c 0,90,91
 563 545 563 545 546 563 c 0,92,93
 528 581 528 581 505 594 c 0,94,95
 493 600 493 600 492 609 c 0,96,97
 492 618 492 618 499 627 c 0,98,99
 526 659 526 659 571 664 c 0,100,101
 616 670 616 670 668 641 c 0,102,103
 690 628 690 628 703 614 c 0,104,105
 717 599 717 599 726 580 c 0,106,107
 728 573 728 573 733 559 c 0,108,109
 734 555 734 555 734 551 c 0,110,111
 734 545 734 545 730 542 c 0,112,113
 724 539 724 539 716 540 c 0,114,115
 692 545 692 545 670 541 c 0,116,117
 647 537 647 537 629 519 c 0,86,87
381 578 m 1,118,119
 404 579 404 579 426 585 c 0,120,121
 448 592 448 592 468 602 c 1,122,123
 470 591 470 591 478 583 c 256,124,125
 486 575 486 575 494 571 c 0,126,127
 513 560 513 560 528 545 c 256,128,129
 543 530 543 530 557 512 c 0,130,131
 566 501 566 501 578 492 c 0,132,133
 589 483 589 483 599 482 c 1,134,135
 601 410 601 410 587 338 c 256,136,137
 573 266 573 266 550 196 c 1,138,139
 494 196 494 196 381 196 c 1,140,141
 381 324 381 324 381 578 c 1,118,119
589 24 m 0,142,143
 535 24 535 24 428 25 c 0,144,145
 420 25 420 25 414 29 c 0,146,147
 409 34 409 34 407 42 c 0,148,149
 397 78 397 78 376 150 c 0,150,151
 376 157 376 157 375 172 c 1,152,153
 430 172 430 172 539 172 c 0,154,155
 550 172 550 172 561 165 c 0,156,157
 573 158 573 158 580 148 c 0,158,159
 594 127 594 127 602 104 c 0,160,161
 610 80 610 80 611 57 c 1,162,163
 616 42 616 42 608 33 c 0,164,165
 601 24 601 24 589 24 c 0,142,143
EndSplineSet
Validated: 33
EndChar

StartChar: one
Encoding: 49 49 11
Width: 737
Flags: W
LayerCount: 2
Fore
SplineSet
296 296 m 0,0,1
 248 271 248 271 150 221 c 0,2,3
 129 211 129 211 111 216 c 0,4,5
 92 222 92 222 81 242 c 0,6,7
 57 289 57 289 11 383 c 0,8,9
 4 397 4 397 4 409 c 0,10,11
 4 424 4 424 16 437 c 0,12,13
 38 458 38 458 63 452 c 0,14,15
 72 450 72 450 80 444 c 0,16,17
 87 438 87 438 93 427 c 0,18,19
 96 422 96 422 101 411 c 0,20,21
 104 406 104 406 107 406 c 0,22,23
 110 407 110 407 111 411 c 0,24,25
 121 479 121 479 166 544 c 0,26,27
 210 608 210 608 274 639 c 0,28,29
 343 676 343 676 415 676 c 0,30,31
 429 676 429 676 443 675 c 0,32,33
 530 667 530 667 605 614 c 0,34,35
 651 579 651 579 680 534 c 0,36,37
 708 490 708 490 723 432 c 0,38,39
 730 400 730 400 730 368 c 0,40,41
 730 324 730 324 718 280 c 0,42,43
 698 203 698 203 642 149 c 0,44,45
 624 129 624 129 604 116 c 0,46,47
 585 102 585 102 561 89 c 0,48,49
 548 82 548 82 536 82 c 0,50,51
 520 82 520 82 505 93 c 0,52,53
 478 114 478 114 482 144 c 0,54,55
 484 154 484 154 490 163 c 0,56,57
 496 173 496 173 507 181 c 0,58,59
 582 224 582 224 609 292 c 0,60,61
 635 360 635 360 611 436 c 0,62,63
 594 481 594 481 556 515 c 0,64,65
 518 548 518 548 474 560 c 0,66,67
 425 574 425 574 375 563 c 0,68,69
 324 553 324 553 285 517 c 0,70,71
 254 489 254 489 237 453 c 0,72,73
 221 418 221 418 218 380 c 0,74,75
 219 371 219 371 225 369 c 0,76,77
 230 367 230 367 237 371 c 0,78,79
 241 373 241 373 248 376 c 0,80,81
 274 390 274 390 297 372 c 0,82,83
 320 355 320 355 317 329 c 0,84,85
 316 321 316 321 311 312 c 0,86,87
 306 304 306 304 296 296 c 0,0,1
EndSplineSet
Validated: 33
EndChar

StartChar: two
Encoding: 50 50 12
Width: 737
Flags: W
LayerCount: 2
Fore
SplineSet
30 314 m 0,0,1
 21 328 21 328 20 341 c 0,2,3
 20 353 20 353 28 364 c 0,4,5
 44 388 44 388 70 386 c 0,6,7
 78 385 78 385 87 381 c 256,8,9
 96 377 96 377 104 368 c 0,10,11
 136 326 136 326 200 243 c 1,12,13
 200 373 200 373 201 632 c 0,14,15
 201 663 201 663 227 673 c 0,16,17
 254 682 254 682 271 666 c 0,18,19
 277 661 277 661 281 653 c 0,20,21
 284 645 284 645 284 633 c 0,22,23
 284 565 284 565 284 429 c 0,24,25
 286 410 286 410 299 411 c 0,26,27
 312 413 312 413 312 430 c 0,28,29
 312 516 312 516 312 688 c 0,30,31
 312 720 312 720 338 729 c 0,32,33
 347 732 347 732 355 732 c 0,34,35
 371 732 371 732 383 721 c 0,36,37
 389 716 389 716 392 708 c 0,38,39
 396 700 396 700 396 688 c 0,40,41
 397 602 397 602 397 430 c 0,42,43
 399 410 399 410 411 412 c 0,44,45
 423 413 423 413 424 429 c 0,46,47
 424 508 424 508 424 666 c 0,48,49
 425 676 425 676 429 683 c 0,50,51
 433 691 433 691 439 695 c 0,52,53
 457 709 457 709 482 700 c 0,54,55
 507 692 507 692 508 666 c 0,56,57
 509 577 509 577 509 398 c 0,58,59
 509 385 509 385 522 384 c 256,60,61
 535 383 535 383 536 399 c 0,62,63
 536 459 536 459 536 577 c 0,64,65
 537 608 537 608 562 617 c 256,66,67
 587 626 587 626 605 609 c 0,68,69
 611 604 611 604 615 595 c 0,70,71
 619 587 619 587 620 575 c 0,72,73
 620 451 620 451 620 203 c 0,74,75
 618 105 618 105 561 57 c 0,76,77
 505 9 505 9 410 8 c 0,78,79
 407 8 407 8 404 8 c 0,80,81
 338 8 338 8 283 27 c 0,82,83
 226 47 226 47 186 96 c 1,84,85
 134 169 134 169 30 314 c 0,0,1
EndSplineSet
Validated: 33
EndChar

StartChar: three
Encoding: 51 51 13
Width: 737
Flags: W
LayerCount: 2
Fore
SplineSet
604 91 m 1,0,1
 557 100 557 100 463 117 c 1,2,3
 481 130 481 130 517 157 c 1,4,5
 470 156 470 156 374 156 c 1,6,7
 391 174 391 174 425 209 c 1,8,9
 376 204 376 204 279 192 c 1,10,11
 296 213 296 213 330 255 c 1,12,13
 282 250 282 250 187 239 c 1,14,15
 203 254 203 254 236 284 c 1,16,17
 210 288 210 288 183 291 c 256,18,19
 156 294 156 294 130 295 c 1,20,21
 104 339 104 339 134 401 c 0,22,23
 163 463 163 463 218 520 c 1,24,25
 325 491 325 491 436 393 c 0,26,27
 548 295 548 295 640 141 c 1,28,29
 594 283 594 283 502 391 c 0,30,31
 411 499 411 499 277 574 c 1,32,33
 295 590 295 590 314 602 c 256,34,35
 333 614 333 614 354 621 c 0,36,37
 382 630 382 630 407 632 c 0,38,39
 431 634 431 634 452 616 c 0,40,41
 599 464 599 464 661 319 c 0,42,43
 718 187 718 187 719 30 c 0,44,45
 719 14 719 14 718 -1 c 1,46,47
 662 20 662 20 549 62 c 1,48,49
 567 72 567 72 604 91 c 1,0,1
28 242 m 0,50,51
 11 295 11 295 11 339 c 0,52,53
 11 357 11 357 14 373 c 0,54,55
 24 430 24 430 51 479 c 0,56,57
 65 505 65 505 83 530 c 256,58,59
 101 555 101 555 119 579 c 0,60,61
 141 604 141 604 171 630 c 0,62,63
 200 656 200 656 234 678 c 0,64,65
 297 719 297 719 370 734 c 0,66,67
 388 737 388 737 405 737 c 0,68,69
 459 737 459 737 510 703 c 0,70,71
 523 692 523 692 520 672 c 0,72,73
 517 651 517 651 501 643 c 0,74,75
 495 639 495 639 486 639 c 256,76,77
 477 639 477 639 466 644 c 0,78,79
 430 671 430 671 379 659 c 256,80,81
 328 647 328 647 277 612 c 0,82,83
 250 593 250 593 224 570 c 0,84,85
 198 546 198 546 177 521 c 0,86,87
 160 499 160 499 144 476 c 0,88,89
 129 453 129 453 117 430 c 0,90,91
 95 386 95 386 90 345 c 0,92,93
 86 304 86 304 113 273 c 0,94,95
 117 263 117 263 116 254 c 256,96,97
 115 245 115 245 111 238 c 0,98,99
 99 218 99 218 70 216 c 0,100,101
 40 215 40 215 28 242 c 0,50,51
EndSplineSet
Validated: 33
EndChar

StartChar: four
Encoding: 52 52 14
Width: 737
Flags: W
LayerCount: 2
Fore
SplineSet
205 635 m 1,0,1
 212 613 212 613 225 568 c 1,2,3
 160 530 160 530 128 462 c 0,4,5
 97 394 97 394 102 312 c 0,6,7
 105 277 105 277 118 246 c 0,8,9
 130 214 130 214 150 187 c 0,10,11
 188 137 188 137 244 105 c 0,12,13
 300 74 300 74 357 72 c 0,14,15
 405 74 405 74 445 86 c 0,16,17
 484 99 484 99 515 119 c 0,18,19
 573 156 573 156 603 213 c 256,20,21
 633 270 633 270 636 330 c 0,22,23
 640 406 640 406 607 466 c 0,24,25
 575 526 575 526 515 566 c 1,26,27
 520 589 520 589 530 635 c 1,28,29
 548 627 548 627 569 612 c 256,30,31
 590 597 590 597 610 575 c 0,32,33
 647 535 647 535 675 476 c 0,34,35
 704 417 704 417 705 347 c 0,36,37
 702 222 702 222 634 139 c 256,38,39
 566 56 566 56 463 22 c 0,40,41
 409 8 409 8 362 8 c 0,42,43
 301 8 301 8 250 30 c 0,44,45
 160 70 160 70 104 137 c 1,46,47
 50 210 50 210 39 299 c 0,48,49
 37 322 37 322 37 345 c 0,50,51
 37 410 37 410 60 474 c 0,52,53
 82 531 82 531 122 571 c 0,54,55
 162 612 162 612 205 635 c 1,0,1
526 732 m 1,56,57
 512 673 512 673 483 557 c 1,58,59
 405 557 405 557 249 559 c 1,60,61
 235 615 235 615 206 728 c 1,62,63
 313 729 313 729 526 732 c 1,56,57
EndSplineSet
Validated: 33
EndChar

StartChar: five
Encoding: 53 53 15
Width: 737
Flags: W
LayerCount: 2
Fore
SplineSet
156 -27 m 1,0,1
 74 105 74 105 -89 369 c 1,2,3
 -32 468 -32 468 140 765 c 1,4,5
 254 765 254 765 597 765 c 1,6,7
 655 666 655 666 826 369 c 1,8,9
 769 270 769 270 597 -27 c 1,10,11
 487 -27 487 -27 156 -27 c 1,0,1
EndSplineSet
Validated: 1
EndChar

StartChar: six
Encoding: 54 54 16
Width: 737
Flags: W
LayerCount: 2
Fore
SplineSet
890 369 m 1,0,1
 760 241 760 241 369 -140 c 1,2,3
 241 -13 241 -13 -140 369 c 1,4,5
 -13 499 -13 499 369 890 c 1,6,7
 499 760 499 760 890 369 c 1,0,1
EndSplineSet
Validated: 1
EndChar

StartChar: seven
Encoding: 55 55 17
Width: 737
Flags: W
LayerCount: 2
Fore
SplineSet
731 376 m 0,0,1
 728 319 728 319 719 283 c 256,2,3
 710 247 710 247 700 221 c 0,4,5
 681 175 681 175 646 150 c 256,6,7
 611 125 611 125 585 119 c 0,8,9
 556 113 556 113 542 112 c 0,10,11
 539 112 539 112 536 112 c 0,12,13
 522 112 522 112 501 115 c 0,14,15
 493 116 493 116 492 116 c 256,16,17
 491 116 491 116 421 132 c 1,18,19
 424 139 424 139 425 141 c 0,20,21
 426 144 426 144 445 167 c 0,22,23
 457 182 457 182 471 197 c 0,24,25
 486 211 486 211 500 223 c 0,26,27
 518 239 518 239 544 260 c 0,28,29
 570 280 570 280 647 307 c 1,30,31
 630 311 630 311 612 309 c 256,32,33
 594 307 594 307 571 295 c 1,34,35
 571 296 571 296 575 317 c 0,36,37
 580 339 580 339 573 388 c 1,38,39
 627 408 627 408 664 430 c 0,40,41
 702 453 702 453 724 481 c 1,42,43
 729 454 729 454 731 432 c 0,44,45
 732 422 732 422 731 407 c 0,46,47
 731 393 731 393 731 376 c 0,0,1
232 444 m 0,48,49
 253 437 253 437 260 434 c 0,50,51
 268 431 268 431 307 408 c 1,52,53
 288 364 288 364 282 314 c 0,54,55
 276 263 276 263 298 220 c 0,56,57
 300 215 300 215 308 202 c 0,58,59
 315 189 315 189 315 189 c 1,60,61
 309 193 309 193 283 211 c 0,62,63
 257 230 257 230 217 291 c 0,64,65
 208 305 208 305 200 315 c 0,66,67
 193 326 193 326 178 371 c 1,68,69
 178 351 178 351 184 329 c 0,70,71
 190 308 190 308 192 303 c 0,72,73
 195 295 195 295 200 280 c 0,74,75
 205 264 205 264 238 225 c 0,76,77
 288 166 288 166 290 166 c 256,78,79
 292 166 292 166 337 132 c 1,80,81
 337 132 337 132 310 128 c 256,82,83
 283 124 283 124 234 139 c 0,84,85
 184 155 184 155 157 193 c 0,86,87
 129 231 129 231 122 244 c 0,88,89
 102 285 102 285 95 309 c 0,90,91
 87 332 87 332 53 392 c 1,92,93
 53 392 53 392 45 404 c 0,94,95
 36 416 36 416 2 447 c 1,96,97
 2 447 2 447 3 448 c 256,98,99
 4 449 4 449 43 454 c 0,100,101
 102 461 102 461 155 456 c 0,102,103
 207 451 207 451 232 444 c 0,48,49
395 155 m 1,104,105
 389 245 389 245 401 306 c 0,106,107
 413 366 413 366 457 432 c 1,108,109
 400 384 400 384 380 309 c 0,110,111
 359 234 359 234 364 156 c 1,112,113
 314 205 314 205 301 257 c 0,114,115
 287 310 287 310 314 382 c 1,116,117
 337 429 337 429 362 474 c 0,118,119
 387 518 387 518 403 569 c 0,120,121
 406 583 406 583 407 592 c 0,122,123
 407 601 407 601 405 618 c 1,124,125
 454 573 454 573 489 527 c 0,126,127
 523 481 523 481 548 420 c 0,128,129
 559 384 559 384 561 354 c 0,130,131
 563 323 563 323 551 286 c 1,132,133
 503 264 503 264 466 232 c 0,134,135
 430 201 430 201 395 155 c 1,104,105
EndSplineSet
Validated: 33
EndChar

StartChar: eight
Encoding: 56 56 18
Width: 737
Flags: W
LayerCount: 2
Fore
SplineSet
476 369 m 1,0,1
 443 335 443 335 415 308 c 0,2,3
 386 280 386 280 365 245 c 1,4,5
 355 310 355 310 332 359 c 0,6,7
 308 408 308 408 270 452 c 1,8,9
 294 406 294 406 308 361 c 256,10,11
 322 316 322 316 329 268 c 0,12,13
 334 197 334 197 330 132 c 256,14,15
 326 67 326 67 310 5 c 1,16,17
 186 85 186 85 138 149 c 0,18,19
 89 214 89 214 85 300 c 1,20,21
 90 422 90 422 168 527 c 256,22,23
 246 632 246 632 382 731 c 1,24,25
 364 657 364 657 411 532 c 256,26,27
 458 407 458 407 476 369 c 1,0,1
391 23 m 1,28,29
 345 106 345 106 364 176 c 0,30,31
 382 247 382 247 445 301 c 0,32,33
 484 335 484 335 514 375 c 0,34,35
 545 414 545 414 560 461 c 1,36,37
 604 386 604 386 630 306 c 0,38,39
 643 267 643 267 643 224 c 0,40,41
 643 179 643 179 629 129 c 1,42,43
 614 101 614 101 594 80 c 0,44,45
 573 59 573 59 538 40 c 1,46,47
 509 30 509 30 482 23 c 256,48,49
 455 16 455 16 424 12 c 1,50,51
 429 82 429 82 465 149 c 0,52,53
 500 216 500 216 556 266 c 1,54,55
 478 226 478 226 443 159 c 0,56,57
 409 93 409 93 391 23 c 1,28,29
EndSplineSet
Validated: 33
EndChar

StartChar: nine
Encoding: 57 57 19
Width: 737
Flags: W
LayerCount: 2
Fore
SplineSet
187 583 m 0,0,1
 269 573 269 573 344 548 c 0,2,3
 420 523 420 523 476 458 c 1,4,5
 431 403 431 403 407 341 c 0,6,7
 383 280 383 280 398 204 c 1,8,9
 345 255 345 255 308 319 c 0,10,11
 270 382 270 382 256 451 c 1,12,13
 247 363 247 363 309 258 c 0,14,15
 372 153 372 153 462 84 c 1,16,17
 450 84 450 84 439 84 c 0,18,19
 333 83 333 83 264 134 c 0,20,21
 188 189 188 189 152 293 c 1,22,23
 131 371 131 371 96 453 c 256,24,25
 61 535 61 535 4 582 c 1,26,27
 53 588 53 588 95 587 c 0,28,29
 138 586 138 586 187 583 c 0,0,1
473 110 m 1,30,31
 414 187 414 187 415 261 c 0,32,33
 416 336 416 336 471 412 c 0,34,35
 510 460 510 460 543 515 c 0,36,37
 577 570 577 570 583 629 c 1,38,39
 641 564 641 564 685 477 c 0,40,41
 726 395 726 395 726 304 c 0,42,43
 726 300 726 300 726 295 c 0,44,45
 723 230 723 230 676 169 c 0,46,47
 630 107 630 107 512 105 c 1,48,49
 511 189 511 189 534 265 c 0,50,51
 557 342 557 342 614 411 c 1,52,53
 544 362 544 362 512 282 c 0,54,55
 479 201 479 201 473 110 c 1,30,31
EndSplineSet
Validated: 33
EndChar

StartChar: colon
Encoding: 58 58 20
Width: 737
Flags: W
LayerCount: 2
Fore
SplineSet
286 232 m 1,0,1
 256 213 256 213 220 223 c 0,2,3
 185 232 185 232 173 266 c 1,4,5
 158 266 158 266 147 270 c 0,6,7
 135 274 135 274 125 281 c 1,8,9
 94 261 94 261 64 267 c 0,10,11
 35 273 35 273 19 292 c 0,12,13
 8 309 8 309 8 325 c 0,14,15
 8 330 8 330 9 335 c 0,16,17
 14 357 14 357 37 372 c 1,18,19
 30 385 30 385 31 398 c 0,20,21
 33 412 33 412 42 425 c 1,22,23
 30 431 30 431 20 444 c 0,24,25
 10 456 10 456 8 477 c 0,26,27
 8 494 8 494 25 511 c 0,28,29
 41 528 41 528 65 533 c 1,30,31
 36 545 36 545 32 576 c 0,32,33
 28 608 28 608 59 628 c 0,34,35
 70 635 70 635 81 638 c 0,36,37
 91 641 91 641 103 640 c 1,38,39
 111 668 111 668 139 680 c 0,40,41
 168 692 168 692 205 680 c 1,42,43
 212 693 212 693 225 700 c 0,44,45
 237 707 237 707 255 710 c 1,46,47
 279 734 279 734 311 734 c 0,48,49
 318 734 318 734 325 733 c 0,50,51
 367 727 367 727 380 687 c 1,52,53
 389 688 389 688 398 686 c 0,54,55
 406 684 406 684 414 680 c 1,56,57
 443 716 443 716 486 710 c 256,58,59
 529 704 529 704 544 664 c 1,60,61
 569 664 569 664 589 651 c 0,62,63
 609 639 609 639 615 617 c 1,64,65
 669 614 669 614 683 576 c 0,66,67
 697 537 697 537 657 512 c 1,68,69
 662 503 662 503 663 495 c 0,70,71
 663 486 663 486 662 477 c 1,72,73
 729 471 729 471 731 419 c 0,74,75
 731 417 731 417 731 416 c 0,76,77
 731 366 731 366 661 359 c 1,78,79
 666 338 666 338 654 320 c 0,80,81
 643 303 643 303 616 293 c 1,82,83
 606 255 606 255 562 245 c 0,84,85
 517 235 517 235 485 273 c 1,86,87
 472 268 472 268 461 267 c 0,88,89
 451 265 451 265 441 266 c 1,90,91
 432 252 432 252 430 232 c 0,92,93
 428 211 428 211 429 186 c 0,94,95
 429 136 429 136 429 101 c 0,96,97
 429 67 429 67 453 42 c 1,98,99
 453 42 453 42 456 38 c 0,100,101
 459 35 459 35 454 29 c 0,102,103
 430 16 430 16 406 12 c 0,104,105
 382 9 382 9 358 8 c 0,106,107
 336 10 336 10 309 14 c 0,108,109
 282 19 282 19 267 25 c 0,110,111
 266 25 266 25 262 29 c 0,112,113
 258 34 258 34 264 42 c 0,114,115
 288 68 288 68 288 120 c 0,116,117
 289 173 289 173 289 199 c 0,118,119
 289 211 289 211 287 221 c 0,120,121
 286 231 286 231 286 232 c 1,0,1
305 45 m 1,122,123
 341 36 341 36 361 38 c 256,124,125
 381 40 381 40 412 47 c 1,126,127
 399 59 399 59 396 81 c 0,128,129
 394 102 394 102 393 122 c 0,130,131
 392 170 392 170 400 228 c 0,132,133
 408 287 408 287 412 298 c 0,134,135
 417 308 417 308 423 316 c 0,136,137
 430 325 430 325 436 333 c 1,138,139
 431 332 431 332 425 333 c 256,140,141
 419 334 419 334 414 337 c 1,142,143
 410 332 410 332 404 322 c 1,144,145
 394 316 394 316 385 316 c 0,146,147
 375 317 375 317 368 323 c 1,148,149
 361 342 361 342 345 379 c 1,150,151
 340 380 340 380 333 382 c 256,152,153
 326 384 326 384 318 389 c 1,154,155
 324 369 324 369 336 330 c 1,156,157
 332 328 332 328 322 322 c 1,158,159
 303 339 303 339 285 354 c 256,160,161
 267 369 267 369 247 388 c 1,162,163
 244 383 244 383 240 381 c 256,164,165
 236 379 236 379 229 378 c 1,166,167
 246 359 246 359 281 321 c 0,168,169
 290 307 290 307 303 278 c 256,170,171
 316 249 316 249 318 235 c 0,172,173
 319 207 319 207 319 158 c 0,174,175
 320 109 320 109 319 93 c 0,176,177
 318 79 318 79 315 68 c 0,178,179
 311 56 311 56 305 45 c 1,122,123
EndSplineSet
Validated: 33
EndChar

StartChar: equal
Encoding: 61 61 21
Width: 737
Flags: W
LayerCount: 2
Fore
SplineSet
482 515 m 0,0,1
 459 412 459 412 457 401 c 0,2,3
 456 390 456 390 448 333 c 0,4,5
 445 317 445 317 445 316 c 2,6,7
 445 316 445 316 437 250 c 0,8,9
 437 247 437 247 435 234 c 0,10,11
 432 221 432 221 431 157 c 1,12,13
 435 165 435 165 435 169 c 0,14,15
 434 172 434 172 440 203 c 0,16,17
 449 250 449 250 451 263 c 0,18,19
 454 276 454 276 482 347 c 0,20,21
 482 348 482 348 499 384 c 0,22,23
 515 421 515 421 550 464 c 0,24,25
 552 467 552 467 558 475 c 0,26,27
 563 483 563 483 595 511 c 0,28,29
 595 512 595 512 625 536 c 0,30,31
 654 560 654 560 637 521 c 0,32,33
 633 513 633 513 631 508 c 0,34,35
 629 504 629 504 604 431 c 0,36,37
 603 430 603 430 602 428 c 0,38,39
 601 425 601 425 589 384 c 0,40,41
 577 340 577 340 563 280 c 0,42,43
 550 220 550 220 544 140 c 1,44,45
 552 160 552 160 559 180 c 256,46,47
 566 200 566 200 577 220 c 0,48,49
 607 271 607 271 648 298 c 256,50,51
 689 325 689 325 711 333 c 0,52,53
 715 334 715 334 719 331 c 0,54,55
 721 330 721 330 721 328 c 0,56,57
 721 324 721 324 717 317 c 0,58,59
 706 296 706 296 696 277 c 0,60,61
 685 258 685 258 672 208 c 0,62,63
 662 172 662 172 660 145 c 0,64,65
 657 118 657 118 652 88 c 1,66,67
 505 87 505 87 366 86 c 0,68,69
 227 86 227 86 86 86 c 1,70,71
 77 128 77 128 70 177 c 0,72,73
 62 227 62 227 50 255 c 0,74,75
 34 294 34 294 33 296 c 256,76,77
 32 298 32 298 6 340 c 1,78,79
 13 339 13 339 33 333 c 0,80,81
 54 327 54 327 87 302 c 0,82,83
 109 285 109 285 117 279 c 0,84,85
 124 274 124 274 148 239 c 256,86,87
 172 204 172 204 175 192 c 0,88,89
 177 181 177 181 197 125 c 1,90,91
 197 134 197 134 196 136 c 0,92,93
 196 138 196 138 192 174 c 0,94,95
 187 219 187 219 187 223 c 0,96,97
 186 227 186 227 175 280 c 0,98,99
 173 290 173 290 173 293 c 0,100,101
 172 296 172 296 158 356 c 2,102,103
 158 356 158 356 156 365 c 0,104,105
 155 373 155 373 137 428 c 0,106,107
 125 465 125 465 121 474 c 256,108,109
 117 483 117 483 92 548 c 1,110,111
 129 534 129 534 177 474 c 256,112,113
 225 414 225 414 236 393 c 0,114,115
 264 341 264 341 273 308 c 0,116,117
 283 274 283 274 287 258 c 0,118,119
 303 194 303 194 308 146 c 0,120,121
 314 98 314 98 315 139 c 0,122,123
 315 155 315 155 317 181 c 0,124,125
 318 206 318 206 335 305 c 0,126,127
 342 344 342 344 347 367 c 0,128,129
 352 391 352 391 365 429 c 0,130,131
 368 437 368 437 374 458 c 0,132,133
 379 479 379 479 409 539 c 0,134,135
 422 565 422 565 424 569 c 0,136,137
 425 572 425 572 455 618 c 0,138,139
 498 684 498 684 512 693 c 0,140,141
 525 702 525 702 544 719 c 1,142,143
 540 709 540 709 519 647 c 0,144,145
 499 586 499 586 482 515 c 0,0,1
EndSplineSet
Validated: 33
EndChar

StartChar: greater
Encoding: 62 62 22
Width: 737
Flags: W
LayerCount: 2
Fore
SplineSet
620 555 m 0,0,1
 609 529 609 529 602 508 c 0,2,3
 594 487 594 487 587 462 c 0,4,5
 555 359 555 359 552 339 c 0,6,7
 550 319 550 319 549 292 c 1,8,9
 567 329 567 329 608 396 c 0,10,11
 649 464 649 464 709 500 c 0,12,13
 711 498 711 498 711 496 c 256,14,15
 711 494 711 494 709 491 c 0,16,17
 705 486 705 486 692 434 c 0,18,19
 689 422 689 422 678 372 c 256,20,21
 667 322 667 322 664 304 c 0,22,23
 655 245 655 245 652 228 c 0,24,25
 649 210 649 210 644 179 c 1,26,27
 505 178 505 178 296 178 c 0,28,29
 88 177 88 177 88 177 c 257,30,31
 88 177 88 177 80 208 c 0,32,33
 73 239 73 239 63 272 c 0,34,35
 20 412 20 412 20 416 c 1,36,37
 20 416 20 416 20 416 c 1,38,39
 21 418 21 418 21 422 c 1,40,41
 42 398 42 398 57 386 c 0,42,43
 71 373 71 373 107 326 c 0,44,45
 111 320 111 320 115 316 c 0,46,47
 119 311 119 311 145 269 c 0,48,49
 149 262 149 262 151 260 c 0,50,51
 153 257 153 257 172 219 c 1,52,53
 184 209 184 209 168 280 c 256,54,55
 152 351 152 351 143 380 c 0,56,57
 139 390 139 390 138 395 c 0,58,59
 137 399 137 399 118 450 c 0,60,61
 91 522 91 522 87 527 c 256,62,63
 83 532 83 532 65 569 c 1,64,65
 79 566 79 566 108 546 c 0,66,67
 136 525 136 525 157 504 c 0,68,69
 203 457 203 457 234 400 c 0,70,71
 266 343 266 343 270 331 c 0,72,73
 278 309 278 309 284 296 c 0,74,75
 290 284 290 284 304 224 c 0,76,77
 312 195 312 195 313 264 c 0,78,79
 313 332 313 332 309 370 c 0,80,81
 306 395 306 395 302 418 c 0,82,83
 299 442 299 442 282 501 c 0,84,85
 275 523 275 523 274 528 c 0,86,87
 272 532 272 532 279 532 c 0,88,89
 284 529 284 529 310 504 c 0,90,91
 336 480 336 480 358 445 c 0,92,93
 377 417 377 417 388 379 c 0,94,95
 398 340 398 340 418 278 c 1,96,97
 424 316 424 316 435 348 c 256,98,99
 446 380 446 380 469 424 c 0,100,101
 481 447 481 447 489 459 c 0,102,103
 498 471 498 471 521 499 c 0,104,105
 524 503 524 503 551 534 c 256,106,107
 578 565 578 565 616 594 c 0,108,109
 623 600 623 600 624 601 c 0,110,111
 626 602 626 602 642 613 c 1,112,113
 642 608 642 608 640 603 c 256,114,115
 638 598 638 598 620 555 c 0,0,1
EndSplineSet
Validated: 37
EndChar

StartChar: question
Encoding: 63 63 23
Width: 737
Flags: W
LayerCount: 2
Fore
SplineSet
24 210 m 1,0,1
 34 243 34 243 25 278 c 0,2,3
 16 314 16 314 -1 348 c 1,4,5
 39 320 39 320 62 286 c 256,6,7
 85 252 85 252 90 210 c 1,8,9
 68 210 68 210 24 210 c 1,0,1
99 211 m 1,10,11
 107 290 107 290 152 372 c 0,12,13
 196 454 196 454 265 513 c 1,14,15
 232 452 232 452 216 390 c 0,16,17
 200 327 200 327 201 266 c 1,18,19
 223 311 223 311 265 347 c 256,20,21
 307 383 307 383 360 392 c 1,22,23
 306 357 306 357 286 307 c 0,24,25
 266 258 266 258 266 210 c 1,26,27
 210 210 210 210 99 211 c 1,10,11
332 210 m 1,28,29
 352 240 352 240 352 273 c 0,30,31
 352 305 352 305 335 341 c 1,32,33
 358 331 358 331 380 315 c 0,34,35
 401 298 401 298 409 280 c 1,36,37
 406 352 406 352 377 431 c 256,38,39
 348 510 348 510 287 584 c 1,40,41
 370 528 370 528 420 438 c 256,42,43
 470 348 470 348 484 260 c 1,44,45
 485 337 485 337 525 406 c 0,46,47
 565 476 565 476 633 513 c 1,48,49
 603 462 603 462 592 407 c 0,50,51
 582 352 582 352 595 305 c 1,52,53
 621 336 621 336 657 362 c 0,54,55
 694 388 694 388 737 396 c 1,56,57
 694 367 694 367 667 320 c 0,58,59
 641 274 641 274 634 210 c 1,60,61
 616 210 616 210 512 210 c 256,62,63
 408 210 408 210 332 210 c 1,28,29
662 210 m 1,64,65
 665 242 665 242 683 269 c 0,66,67
 700 296 700 296 736 322 c 1,68,69
 720 292 720 292 715 262 c 0,70,71
 709 232 709 232 715 210 c 1,72,73
 697 210 697 210 662 210 c 1,64,65
EndSplineSet
Validated: 33
EndChar

StartChar: at
Encoding: 64 64 24
Width: 737
Flags: W
LayerCount: 2
Fore
SplineSet
472 211 m 1,0,1
 503 217 503 217 523 208 c 0,2,3
 543 198 543 198 553 184 c 0,4,5
 563 172 563 172 568 161 c 0,6,7
 573 151 573 151 577 139 c 1,8,9
 566 148 566 148 556 150 c 0,10,11
 545 153 545 153 525 153 c 0,12,13
 498 153 498 153 485 165 c 256,14,15
 472 177 472 177 468 202 c 1,16,17
 489 202 489 202 507 194 c 0,18,19
 526 187 526 187 549 174 c 1,20,21
 532 192 532 192 515 200 c 256,22,23
 498 208 498 208 472 211 c 1,0,1
315 2 m 1,24,25
 322 40 322 40 325 90 c 0,26,27
 329 140 329 140 321 167 c 0,28,29
 314 193 314 193 259 249 c 0,30,31
 203 306 203 306 155 348 c 1,32,33
 203 332 203 332 254 312 c 256,34,35
 305 292 305 292 340 273 c 1,36,37
 348 329 348 329 372 376 c 256,38,39
 396 423 396 423 436 479 c 1,40,41
 426 423 426 423 421 368 c 0,42,43
 416 314 416 314 419 291 c 1,44,45
 461 312 461 312 512 325 c 256,46,47
 563 338 563 338 609 342 c 1,48,49
 573 318 573 318 508 264 c 0,50,51
 442 211 442 211 430 184 c 0,52,53
 417 157 417 157 415 108 c 0,54,55
 413 60 413 60 425 3 c 1,56,57
 389 3 389 3 315 2 c 1,24,25
398 24 m 1,58,59
 391 63 391 63 395 110 c 256,60,61
 399 157 399 157 407 184 c 0,62,63
 414 211 414 211 467 256 c 0,64,65
 520 302 520 302 550 317 c 1,66,67
 513 307 513 307 460 285 c 256,68,69
 407 263 407 263 392 251 c 1,70,71
 393 274 393 274 396 316 c 0,72,73
 398 359 398 359 402 383 c 1,74,75
 385 359 385 359 374 324 c 256,76,77
 363 289 363 289 357 233 c 1,78,79
 337 248 337 248 303 267 c 0,80,81
 270 287 270 287 248 291 c 1,82,83
 270 275 270 275 301 241 c 0,84,85
 332 208 332 208 342 174 c 0,86,87
 350 149 350 149 347 101 c 256,88,89
 344 53 344 53 340 23 c 1,90,91
 359 23 359 23 398 24 c 1,58,59
572 289 m 1,92,93
 627 308 627 308 666 295 c 0,94,95
 704 283 704 283 726 261 c 0,96,97
 748 241 748 241 760 223 c 256,98,99
 772 205 772 205 782 185 c 1,100,101
 760 199 760 199 740 200 c 256,102,103
 720 201 720 201 683 196 c 0,104,105
 635 188 635 188 608 207 c 256,106,107
 581 226 581 226 566 270 c 1,108,109
 605 276 605 276 641 266 c 0,110,111
 678 255 678 255 722 242 c 1,112,113
 687 269 687 269 653 279 c 0,114,115
 620 289 620 289 572 289 c 1,92,93
620 388 m 1,116,117
 648 413 648 413 674 415 c 0,118,119
 701 417 701 417 719 409 c 0,120,121
 737 403 737 403 749 395 c 256,122,123
 761 387 761 387 771 377 c 1,124,125
 755 380 755 380 743 376 c 0,126,127
 730 372 730 372 709 360 c 0,128,129
 682 343 682 343 661 348 c 256,130,131
 640 353 640 353 620 376 c 1,132,133
 643 389 643 389 666 391 c 0,134,135
 690 394 690 394 721 397 c 1,136,137
 694 404 694 404 671 402 c 0,138,139
 649 400 649 400 620 388 c 1,116,117
465 558 m 1,140,141
 472 594 472 594 491 612 c 0,142,143
 510 629 510 629 529 634 c 0,144,145
 547 639 547 639 561 640 c 256,146,147
 575 641 575 641 589 640 c 1,148,149
 574 632 574 632 567 622 c 0,150,151
 561 611 561 611 551 589 c 0,152,153
 540 560 540 560 521 551 c 256,154,155
 502 542 502 542 473 548 c 1,156,157
 482 572 482 572 501 588 c 256,158,159
 520 604 520 604 539 625 c 1,160,161
 512 615 512 615 496 600 c 256,162,163
 480 585 480 585 465 558 c 1,140,141
452 397 m 1,164,165
 469 463 469 463 507 492 c 256,166,167
 545 521 545 521 580 528 c 0,168,169
 614 536 614 536 639 536 c 0,170,171
 665 535 665 535 690 532 c 1,172,173
 662 520 662 520 648 501 c 0,174,175
 634 483 634 483 614 443 c 0,176,177
 590 391 590 391 554 378 c 0,178,179
 518 364 518 364 465 379 c 1,180,181
 485 421 485 421 519 449 c 0,182,183
 552 476 552 476 596 511 c 1,184,185
 546 495 546 495 515 469 c 0,186,187
 483 444 483 444 452 397 c 1,164,165
327 486 m 1,188,189
 310 543 310 543 324 583 c 0,190,191
 339 622 339 622 362 644 c 0,192,193
 384 665 384 665 403 677 c 256,194,195
 422 689 422 689 443 698 c 1,196,197
 428 676 428 676 426 656 c 0,198,199
 424 635 424 635 427 597 c 0,200,201
 433 546 433 546 413 519 c 0,202,203
 392 492 392 492 346 479 c 1,204,205
 341 520 341 520 352 555 c 0,206,207
 363 591 363 591 382 639 c 1,208,209
 353 603 353 603 341 570 c 0,210,211
 329 536 329 536 327 486 c 1,188,189
110 622 m 1,212,213
 160 579 160 579 205 538 c 0,214,215
 249 496 249 496 273 440 c 1,216,217
 202 424 202 424 156 444 c 0,218,219
 110 465 110 465 82 535 c 0,220,221
 58 588 58 588 41 613 c 256,222,223
 24 638 24 638 -12 656 c 1,224,225
 21 659 21 659 55 658 c 0,226,227
 89 656 89 656 132 644 c 0,228,229
 178 632 178 632 226 591 c 256,230,231
 274 550 274 550 292 463 c 1,232,233
 254 527 254 527 214 562 c 0,234,235
 174 598 174 598 110 622 c 1,212,213
22 393 m 1,236,237
 61 391 61 391 92 388 c 256,238,239
 123 385 123 385 152 368 c 1,240,241
 127 338 127 338 100 331 c 0,242,243
 74 325 74 325 38 346 c 0,244,245
 11 360 11 360 -5 366 c 0,246,247
 -21 371 -21 371 -42 367 c 1,248,249
 -29 379 -29 379 -14 389 c 0,250,251
 1 400 1 400 24 409 c 0,252,253
 47 419 47 419 81 418 c 0,254,255
 115 416 115 416 152 384 c 1,256,257
 115 399 115 399 86 401 c 256,258,259
 57 403 57 403 22 393 c 1,236,237
53 215 m 1,260,261
 90 241 90 241 120 259 c 0,262,263
 151 277 151 277 188 282 c 1,264,265
 186 237 186 237 166 213 c 256,266,267
 146 189 146 189 100 184 c 0,268,269
 65 178 65 178 47 173 c 0,270,271
 29 167 29 167 12 148 c 1,272,273
 16 169 16 169 23 188 c 0,274,275
 29 208 29 208 44 232 c 0,276,277
 58 257 58 257 90 279 c 0,278,279
 123 300 123 300 178 297 c 1,280,281
 133 285 133 285 106 267 c 0,282,283
 78 249 78 249 53 215 c 1,260,261
193 173 m 1,284,285
 216 183 216 183 234 191 c 0,286,287
 251 198 251 198 272 197 c 1,288,289
 267 173 267 173 254 162 c 256,290,291
 241 151 241 151 216 152 c 0,292,293
 196 153 196 153 186 151 c 256,294,295
 176 149 176 149 165 141 c 1,296,297
 169 152 169 152 174 162 c 0,298,299
 180 172 180 172 190 183 c 0,300,301
 200 196 200 196 219 204 c 0,302,303
 238 213 238 213 268 206 c 1,304,305
 243 204 243 204 226 197 c 0,306,307
 210 189 210 189 193 173 c 1,284,285
275 385 m 1,308,309
 288 366 288 366 302 353 c 256,310,311
 316 340 316 340 321 321 c 1,312,313
 298 318 298 318 284 326 c 256,314,315
 270 334 270 334 263 358 c 0,316,317
 258 375 258 375 253 384 c 256,318,319
 248 393 248 393 237 400 c 1,320,321
 248 399 248 399 259 398 c 0,322,323
 270 396 270 396 283 391 c 0,324,325
 297 386 297 386 311 371 c 0,326,327
 325 357 325 357 328 328 c 1,328,329
 318 350 318 350 307 362 c 0,330,331
 295 375 295 375 275 385 c 1,308,309
EndSplineSet
Validated: 33
EndChar

StartChar: A
Encoding: 65 65 25
Width: 737
Flags: W
LayerCount: 2
Fore
SplineSet
399 356 m 1,0,1
 399 356 399 356 398 357 c 0,2,3
 397 357 397 357 397 357 c 1,4,5
 377 438 377 438 401 492 c 0,6,7
 425 547 425 547 460 575 c 0,8,9
 491 603 491 603 519 618 c 256,10,11
 547 633 547 633 577 644 c 1,12,13
 554 614 554 614 550 586 c 0,14,15
 545 558 545 558 547 503 c 0,16,17
 551 432 551 432 520 396 c 256,18,19
 489 360 489 360 423 345 c 1,20,21
 420 402 420 402 432 456 c 0,22,23
 443 510 443 510 488 565 c 1,24,25
 488 565 488 565 488 566 c 256,26,27
 488 567 488 567 487 566 c 0,28,29
 443 519 443 519 424 473 c 0,30,31
 405 426 405 426 399 356 c 1,0,1
737 312 m 1,32,33
 704 302 704 302 691 288 c 0,34,35
 677 275 677 275 667 262 c 0,36,37
 623 221 623 221 595 222 c 256,38,39
 567 223 567 223 540 239 c 1,40,41
 562 270 562 270 592 288 c 0,42,43
 622 305 622 305 661 313 c 1,44,45
 661 313 661 313 661 313 c 257,46,47
 661 313 661 313 660 314 c 0,48,49
 627 313 627 313 594 297 c 0,50,51
 560 282 560 282 533 254 c 1,52,53
 533 254 533 254 532 254 c 0,54,55
 531 255 531 255 531 255 c 1,56,57
 544 280 544 280 566 299 c 0,58,59
 588 319 588 319 616 325 c 0,60,61
 648 333 648 333 679 327 c 0,62,63
 710 322 710 322 737 312 c 1,32,33
590 123 m 1,64,65
 579 131 579 131 566 130 c 256,66,67
 553 129 553 129 535 125 c 0,68,69
 502 119 502 119 485 131 c 256,70,71
 468 143 468 143 462 162 c 1,72,73
 481 168 481 168 503 167 c 0,74,75
 526 166 526 166 545 155 c 1,76,77
 545 155 545 155 545 156 c 1,78,79
 545 156 545 156 545 156 c 1,80,81
 532 170 532 170 509 173 c 256,82,83
 486 176 486 176 464 172 c 1,84,85
 464 172 464 172 464 173 c 256,86,87
 464 174 464 174 464 174 c 1,88,89
 509 193 509 193 543 172 c 0,90,91
 576 150 576 150 590 123 c 1,64,65
337 1 m 1,92,93
 360 113 360 113 312 184 c 0,94,95
 265 254 265 254 178 303 c 1,96,97
 210 301 210 301 265 283 c 256,98,99
 320 265 320 265 371 204 c 1,100,101
 422 279 422 279 463 305 c 0,102,103
 505 331 505 331 551 347 c 1,104,105
 495 300 495 300 444 208 c 0,106,107
 392 117 392 117 424 1 c 1,108,109
 395 1 395 1 337 1 c 1,92,93
401 18 m 1,110,111
 383 115 383 115 409 180 c 0,112,113
 435 246 435 246 484 301 c 1,114,115
 451 279 451 279 423 247 c 256,116,117
 395 215 395 215 372 180 c 1,118,119
 349 214 349 214 315 239 c 0,120,121
 281 263 281 263 240 277 c 1,122,123
 333 210 333 210 348 143 c 0,124,125
 364 77 364 77 356 16 c 1,126,127
 371 17 371 17 401 18 c 1,110,111
298 342 m 1,128,129
 298 342 298 342 298 341 c 1,130,131
 298 341 298 341 296 341 c 0,132,133
 279 377 279 377 253 408 c 0,134,135
 227 438 227 438 189 456 c 1,136,137
 189 456 189 456 189 455 c 256,138,139
 189 454 189 454 189 454 c 1,140,141
 231 425 231 425 251 395 c 0,142,143
 270 365 270 365 282 326 c 1,144,145
 227 321 227 321 201 334 c 0,146,147
 176 348 176 348 159 396 c 0,148,149
 153 412 153 412 145 435 c 0,150,151
 137 457 137 457 103 485 c 1,152,153
 160 490 160 490 224 458 c 256,154,155
 288 426 288 426 298 342 c 1,128,129
381 274 m 1,156,157
 381 274 381 274 380 274 c 256,158,159
 379 274 379 274 379 274 c 1,160,161
 379 291 379 291 375 308 c 0,162,163
 372 324 372 324 361 339 c 1,164,165
 361 339 361 339 360 338 c 0,166,167
 359 338 359 338 359 338 c 257,168,169
 359 338 359 338 359 338 c 257,170,171
 359 338 359 338 359 338 c 257,172,173
 359 338 359 338 359 338 c 257,174,175
 359 338 359 338 359 338 c 1,176,177
 371 318 371 318 372 303 c 0,178,179
 374 288 374 288 371 270 c 1,180,181
 348 279 348 279 341 289 c 0,182,183
 333 299 333 299 336 321 c 0,184,185
 337 329 337 329 338 339 c 256,186,187
 339 349 339 349 331 367 c 1,188,189
 354 358 354 358 374 333 c 0,190,191
 393 309 393 309 381 274 c 1,156,157
205 239 m 1,192,193
 205 239 205 239 205 239 c 257,194,195
 205 239 205 239 205 239 c 1,196,197
 173 252 173 252 140 256 c 0,198,199
 108 260 108 260 73 250 c 1,200,201
 73 250 73 250 74 249 c 0,202,203
 74 248 74 248 74 248 c 1,204,205
 117 253 117 253 146 246 c 0,206,207
 174 239 174 239 204 221 c 1,208,209
 172 187 172 187 148 181 c 256,210,211
 124 175 124 175 87 197 c 0,212,213
 74 203 74 203 56 213 c 256,214,215
 38 223 38 223 1 221 c 1,216,217
 35 256 35 256 93 271 c 0,218,219
 150 286 150 286 205 239 c 1,192,193
269 163 m 1,220,221
 246 156 246 156 226 144 c 0,222,223
 206 131 206 131 192 111 c 1,224,225
 192 111 192 111 193 110 c 0,226,227
 193 109 193 109 194 109 c 0,228,229
 215 131 215 131 233 141 c 0,230,231
 252 150 252 150 277 154 c 1,232,233
 274 120 274 120 264 107 c 0,234,235
 254 93 254 93 223 88 c 0,236,237
 213 86 213 86 199 83 c 256,238,239
 185 80 185 80 165 63 c 1,240,241
 168 97 168 97 193 131 c 256,242,243
 218 165 218 165 269 163 c 1,220,221
EndSplineSet
Validated: 37
EndChar

StartChar: B
Encoding: 66 66 26
Width: 737
Flags: W
LayerCount: 2
Fore
SplineSet
320 1 m 1,0,1
 350 54 350 54 337 108 c 0,2,3
 323 162 323 162 282 208 c 1,4,5
 282 208 282 208 283 209 c 1,6,7
 283 209 283 209 283 209 c 1,8,9
 313 186 313 186 334 156 c 0,10,11
 354 125 354 125 364 94 c 1,12,13
 381 114 381 114 405 127 c 0,14,15
 430 140 430 140 468 144 c 1,16,17
 468 144 468 144 468 144 c 1,18,19
 469 143 469 143 468 142 c 0,20,21
 414 126 414 126 389 90 c 0,22,23
 363 54 363 54 374 0 c 1,24,25
 356 0 356 0 320 1 c 1,0,1
260 472 m 1,26,27
 259 471 259 471 258 470 c 0,28,29
 302 417 302 417 316 357 c 0,30,31
 330 296 330 296 325 236 c 1,32,33
 282 244 282 244 241 273 c 0,34,35
 200 301 200 301 193 378 c 1,36,37
 195 412 195 412 193 466 c 256,38,39
 191 520 191 520 162 554 c 1,40,41
 262 520 262 520 323 440 c 0,42,43
 385 361 385 361 355 249 c 0,44,45
 354 249 354 249 353 249 c 0,46,47
 348 315 348 315 327 369 c 0,48,49
 305 424 305 424 260 472 c 1,26,27
625 384 m 1,50,51
 592 358 592 358 580 331 c 256,52,53
 568 304 568 304 561 280 c 0,54,55
 541 232 541 232 510 221 c 0,56,57
 479 209 479 209 435 216 c 1,58,59
 444 253 444 253 469 288 c 0,60,61
 493 323 493 323 537 351 c 1,62,63
 536 351 536 351 535 352 c 0,64,65
 497 334 497 334 468 302 c 0,66,67
 439 271 439 271 420 231 c 1,68,69
 419 232 419 232 418 232 c 1,70,71
 428 311 428 311 487 349 c 256,72,73
 546 387 546 387 625 384 c 1,50,51
130 251 m 0,74,75
 129 251 129 251 129 249 c 0,76,77
 172 244 172 244 204 222 c 0,78,79
 237 201 237 201 260 171 c 1,80,81
 237 157 237 157 206 152 c 256,82,83
 175 147 175 147 139 179 c 0,84,85
 125 196 125 196 101 220 c 256,86,87
 77 244 77 244 49 247 c 1,88,89
 110 274 110 274 172 264 c 256,90,91
 234 254 234 254 268 190 c 1,92,93
 268 190 268 190 267 189 c 0,94,95
 237 217 237 217 204 233 c 256,96,97
 171 249 171 249 130 251 c 0,74,75
212 93 m 1,98,99
 212 93 212 93 213 92 c 0,100,101
 236 107 236 107 260 108 c 0,102,103
 285 110 285 110 308 105 c 1,104,105
 302 89 302 89 289 74 c 0,106,107
 275 60 275 60 245 62 c 0,108,109
 231 65 231 65 210 67 c 256,110,111
 189 69 189 69 174 60 c 1,112,113
 193 97 193 97 228 116 c 0,114,115
 263 136 263 136 305 117 c 1,116,117
 305 117 305 117 305 116 c 1,118,119
 279 119 279 119 256 113 c 0,120,121
 233 108 233 108 212 93 c 1,98,99
403 252 m 1,122,123
 396 234 396 234 399 221 c 0,124,125
 401 208 401 208 404 197 c 0,126,127
 408 173 408 173 399 162 c 0,128,129
 390 150 390 150 372 142 c 1,130,131
 366 158 366 158 367 177 c 256,132,133
 368 196 368 196 377 217 c 0,134,135
 377 218 377 218 377 218 c 1,136,137
 366 201 366 201 363 182 c 256,138,139
 360 163 360 163 362 144 c 1,140,141
 362 144 362 144 361 143 c 1,142,143
 346 176 346 176 359 205 c 256,144,145
 372 234 372 234 403 252 c 1,122,123
679 63 m 1,146,147
 649 82 649 82 623 84 c 0,148,149
 597 85 597 85 575 83 c 0,150,151
 530 86 530 86 511 107 c 0,152,153
 493 129 493 129 485 167 c 1,154,155
 518 171 518 171 554 162 c 0,156,157
 590 152 590 152 626 125 c 1,158,159
 626 125 626 125 626 126 c 0,160,161
 600 152 600 152 565 167 c 0,162,163
 531 181 531 181 493 185 c 1,164,165
 493 185 493 185 493 186 c 0,166,167
 561 202 561 202 609 165 c 0,168,169
 658 128 658 128 679 63 c 1,146,147
533 3 m 1,170,171
 515 19 515 19 499 24 c 0,172,173
 482 28 482 28 467 29 c 0,174,175
 438 36 438 36 429 53 c 0,176,177
 420 69 420 69 419 95 c 1,178,179
 441 94 441 94 463 83 c 0,180,181
 486 72 486 72 505 50 c 1,182,183
 506 51 506 51 506 51 c 1,184,185
 492 71 492 71 471 85 c 0,186,187
 451 99 451 99 426 105 c 0,188,189
 426 106 426 106 427 106 c 0,190,191
 473 108 473 108 500 78 c 256,192,193
 527 48 527 48 533 3 c 1,170,171
EndSplineSet
Validated: 37
EndChar

StartChar: C
Encoding: 67 67 27
Width: 737
Flags: W
LayerCount: 2
Fore
SplineSet
392 503 m 0,0,1
 396 502 396 502 397 503 c 0,2,3
 399 504 399 504 399 508 c 0,4,5
 385 524 385 524 380 549 c 0,6,7
 374 574 374 574 388 594 c 0,8,9
 402 613 402 613 433 613 c 256,10,11
 464 613 464 613 479 593 c 0,12,13
 493 574 493 574 489 551 c 256,14,15
 485 528 485 528 471 508 c 0,16,17
 470 506 470 506 472 504 c 0,18,19
 474 503 474 503 476 503 c 0,20,21
 484 521 484 521 495 534 c 0,22,23
 506 548 506 548 533 553 c 0,24,25
 560 559 560 559 581 535 c 0,26,27
 601 510 601 510 593 484 c 0,28,29
 584 458 584 458 560 448 c 0,30,31
 535 438 535 438 513 441 c 0,32,33
 511 438 511 438 511 436 c 256,34,35
 511 434 511 434 513 432 c 0,36,37
 540 435 540 435 565 424 c 256,38,39
 590 413 590 413 594 389 c 0,40,41
 599 365 599 365 585 344 c 0,42,43
 570 323 570 323 544 322 c 0,44,45
 519 320 519 320 504 334 c 256,46,47
 489 348 489 348 479 368 c 0,48,49
 477 369 477 369 475 366 c 0,50,51
 473 364 473 364 473 362 c 0,52,53
 489 346 489 346 490 319 c 0,54,55
 490 292 490 292 475 277 c 0,56,57
 460 261 460 261 434 261 c 0,58,59
 407 261 407 261 390 279 c 0,60,61
 373 298 373 298 380 324 c 0,62,63
 386 350 386 350 398 367 c 0,64,65
 397 369 397 369 395 371 c 0,66,67
 393 372 393 372 391 371 c 0,68,69
 382 349 382 349 361 333 c 0,70,71
 339 318 339 318 321 319 c 0,72,73
 303 321 303 321 284 346 c 0,74,75
 266 371 266 371 276 397 c 256,76,77
 286 423 286 423 314 430 c 0,78,79
 341 437 341 437 357 433 c 0,80,81
 360 434 360 434 360 437 c 0,82,83
 360 441 360 441 356 442 c 0,84,85
 327 437 327 437 302 452 c 0,86,87
 278 468 278 468 274 488 c 0,88,89
 270 509 270 509 286 532 c 0,90,91
 301 555 301 555 324 555 c 0,92,93
 346 555 346 555 362 543 c 0,94,95
 377 531 377 531 392 503 c 0,0,1
404 429 m 256,96,97
 410 412 410 412 428 409 c 0,98,99
 447 406 447 406 459 421 c 256,100,101
 471 436 471 436 462 452 c 0,102,103
 454 468 454 468 435 471 c 256,104,105
 416 474 416 474 407 460 c 256,106,107
 398 446 398 446 404 429 c 256,96,97
289 167 m 0,108,109
 291 166 291 166 291 167 c 0,110,111
 292 168 292 168 292 170 c 0,112,113
 285 178 285 178 282 192 c 0,114,115
 279 205 279 205 286 215 c 0,116,117
 294 226 294 226 310 226 c 0,118,119
 327 226 327 226 335 215 c 0,120,121
 343 205 343 205 340 192 c 0,122,123
 338 180 338 180 330 170 c 0,124,125
 330 169 330 169 331 168 c 256,126,127
 332 167 332 167 333 167 c 0,128,129
 338 176 338 176 343 184 c 0,130,131
 349 191 349 191 364 194 c 0,132,133
 378 197 378 197 389 184 c 256,134,135
 400 171 400 171 395 157 c 0,136,137
 391 143 391 143 378 138 c 0,138,139
 365 132 365 132 353 134 c 0,140,141
 352 133 352 133 352 131 c 0,142,143
 352 130 352 130 353 129 c 0,144,145
 367 131 367 131 381 125 c 0,146,147
 394 119 394 119 396 106 c 0,148,149
 399 93 399 93 391 82 c 0,150,151
 384 71 384 71 370 70 c 0,152,153
 356 70 356 70 348 77 c 256,154,155
 340 84 340 84 335 95 c 0,156,157
 334 95 334 95 333 94 c 0,158,159
 331 93 331 93 332 92 c 0,160,161
 340 83 340 83 341 69 c 0,162,163
 341 55 341 55 333 46 c 0,164,165
 325 38 325 38 311 38 c 0,166,167
 296 38 296 38 287 48 c 256,168,169
 278 58 278 58 282 72 c 0,170,171
 285 85 285 85 291 94 c 0,172,173
 291 95 291 95 290 96 c 256,174,175
 289 97 289 97 288 97 c 0,176,177
 283 85 283 85 272 76 c 0,178,179
 260 68 260 68 251 69 c 0,180,181
 241 70 241 70 231 83 c 0,182,183
 221 97 221 97 227 111 c 0,184,185
 232 125 232 125 247 128 c 0,186,187
 261 132 261 132 270 130 c 0,188,189
 271 130 271 130 271 132 c 256,190,191
 271 134 271 134 269 135 c 0,192,193
 254 132 254 132 241 140 c 256,194,195
 228 148 228 148 226 159 c 256,196,197
 224 170 224 170 232 182 c 0,198,199
 240 195 240 195 252 195 c 256,200,201
 264 195 264 195 272 188 c 0,202,203
 281 182 281 182 289 167 c 0,108,109
295 128 m 0,204,205
 298 118 298 118 308 117 c 0,206,207
 318 115 318 115 324 123 c 0,208,209
 331 131 331 131 326 140 c 0,210,211
 321 148 321 148 311 150 c 256,212,213
 301 152 301 152 297 144 c 0,214,215
 292 137 292 137 295 128 c 0,204,205
530 197 m 0,216,217
 532 196 532 196 533 197 c 256,218,219
 534 198 534 198 535 201 c 0,220,221
 524 212 524 212 521 230 c 0,222,223
 517 248 517 248 527 262 c 256,224,225
 537 276 537 276 559 276 c 256,226,227
 581 276 581 276 592 262 c 0,228,229
 602 248 602 248 599 231 c 0,230,231
 596 215 596 215 586 201 c 0,232,233
 586 199 586 199 587 198 c 256,234,235
 588 197 588 197 590 197 c 0,236,237
 596 210 596 210 603 219 c 0,238,239
 611 229 611 229 631 233 c 0,240,241
 650 237 650 237 665 220 c 0,242,243
 679 202 679 202 673 183 c 0,244,245
 667 165 667 165 650 158 c 0,246,247
 632 150 632 150 616 153 c 0,248,249
 615 151 615 151 615 149 c 0,250,251
 615 148 615 148 616 147 c 0,252,253
 635 149 635 149 653 141 c 256,254,255
 671 133 671 133 675 116 c 0,256,257
 675 112 675 112 675 108 c 0,258,259
 675 95 675 95 667 83 c 0,260,261
 657 68 657 68 639 67 c 0,262,263
 620 66 620 66 610 76 c 0,264,265
 599 86 599 86 592 101 c 0,266,267
 590 101 590 101 589 99 c 0,268,269
 587 98 587 98 588 96 c 0,270,271
 599 85 599 85 599 66 c 0,272,273
 600 46 600 46 589 35 c 0,274,275
 579 24 579 24 559 24 c 0,276,277
 540 24 540 24 528 37 c 256,278,279
 516 50 516 50 521 69 c 0,280,281
 525 88 525 88 534 100 c 0,282,283
 533 101 533 101 532 102 c 0,284,285
 530 103 530 103 529 103 c 0,286,287
 523 87 523 87 507 76 c 0,288,289
 492 64 492 64 479 66 c 0,290,291
 466 67 466 67 453 85 c 0,292,293
 439 103 439 103 447 121 c 0,294,295
 454 140 454 140 474 145 c 0,296,297
 493 150 493 150 504 147 c 0,298,299
 507 148 507 148 507 150 c 0,300,301
 507 153 507 153 504 154 c 0,302,303
 483 150 483 150 465 161 c 0,304,305
 448 172 448 172 445 187 c 0,306,307
 443 201 443 201 454 218 c 0,308,309
 465 234 465 234 481 234 c 256,310,311
 497 234 497 234 508 226 c 0,312,313
 519 217 519 217 530 197 c 0,216,217
538 144 m 0,314,315
 543 132 543 132 556 130 c 0,316,317
 569 127 569 127 578 138 c 0,318,319
 586 149 586 149 580 161 c 0,320,321
 574 172 574 172 560 174 c 0,322,323
 547 177 547 177 541 167 c 0,324,325
 534 157 534 157 538 144 c 0,314,315
117 350 m 0,326,327
 119 349 119 349 120 350 c 256,328,329
 121 351 121 351 121 353 c 0,330,331
 111 365 111 365 107 383 c 0,332,333
 104 401 104 401 114 415 c 0,334,335
 123 429 123 429 146 429 c 0,336,337
 168 429 168 429 178 415 c 0,338,339
 189 401 189 401 186 384 c 0,340,341
 183 368 183 368 173 353 c 0,342,343
 172 352 172 352 174 351 c 0,344,345
 175 350 175 350 177 350 c 0,346,347
 182 363 182 363 190 372 c 0,348,349
 198 382 198 382 217 386 c 0,350,351
 237 390 237 390 251 373 c 0,352,353
 266 355 266 355 260 336 c 0,354,355
 254 318 254 318 236 311 c 0,356,357
 219 303 219 303 203 306 c 0,358,359
 201 304 201 304 201 302 c 0,360,361
 201 301 201 301 203 300 c 0,362,363
 222 302 222 302 240 294 c 256,364,365
 258 286 258 286 261 269 c 0,366,367
 265 251 265 251 254 236 c 0,368,369
 244 221 244 221 225 220 c 0,370,371
 207 219 207 219 196 229 c 0,372,373
 186 239 186 239 179 254 c 0,374,375
 177 254 177 254 176 252 c 0,376,377
 174 251 174 251 175 249 c 0,378,379
 186 238 186 238 186 219 c 0,380,381
 187 199 187 199 176 188 c 256,382,383
 165 177 165 177 146 177 c 256,384,385
 127 177 127 177 115 190 c 256,386,387
 103 203 103 203 107 222 c 0,388,389
 112 241 112 241 120 253 c 0,390,391
 120 254 120 254 119 255 c 0,392,393
 117 256 117 256 115 256 c 0,394,395
 109 240 109 240 94 229 c 0,396,397
 78 217 78 217 65 219 c 0,398,399
 53 220 53 220 39 238 c 0,400,401
 31 249 31 249 31 261 c 0,402,403
 31 268 31 268 33 274 c 0,404,405
 41 293 41 293 60 298 c 0,406,407
 80 303 80 303 91 300 c 0,408,409
 94 301 94 301 94 303 c 0,410,411
 93 306 93 306 90 307 c 0,412,413
 70 303 70 303 52 314 c 0,414,415
 35 325 35 325 32 340 c 0,416,417
 29 354 29 354 40 371 c 0,418,419
 51 387 51 387 68 387 c 0,420,421
 84 387 84 387 95 379 c 0,422,423
 106 370 106 370 117 350 c 0,326,327
125 297 m 0,424,425
 129 285 129 285 142 283 c 0,426,427
 156 280 156 280 164 291 c 0,428,429
 173 302 173 302 167 314 c 0,430,431
 160 325 160 325 147 327 c 0,432,433
 134 330 134 330 127 320 c 0,434,435
 121 310 121 310 125 297 c 0,424,425
EndSplineSet
Validated: 33
EndChar

StartChar: D
Encoding: 68 68 28
Width: 737
Flags: W
LayerCount: 2
Fore
SplineSet
252 107 m 1,0,1
 207 64 207 64 151 62 c 0,2,3
 96 61 96 61 54 144 c 0,4,5
 36 173 36 173 25 247 c 0,6,7
 14 317 14 317 14 342 c 0,8,9
 14 344 14 344 14 345 c 1,10,11
 40 333 40 333 55 301 c 0,12,13
 70 268 70 268 115 240 c 1,14,15
 138 233 138 233 169 183 c 0,16,17
 201 133 201 133 252 107 c 1,0,1
247 174 m 1,18,19
 299 161 299 161 387 177 c 0,20,21
 476 193 476 193 552 186 c 0,22,23
 574 186 574 186 579 158 c 0,24,25
 584 129 584 129 567 81 c 0,26,27
 560 65 560 65 530 57 c 0,28,29
 520 55 520 55 512 55 c 0,30,31
 494 55 494 55 481 65 c 0,32,33
 448 98 448 98 391 110 c 0,34,35
 335 121 335 121 277 135 c 0,36,37
 236 148 236 148 220 159 c 0,38,39
 204 171 204 171 181 207 c 1,40,41
 203 196 203 196 247 174 c 1,18,19
253 207 m 1,42,43
 168 232 168 232 111 297 c 0,44,45
 55 363 55 363 55 431 c 0,46,47
 58 483 58 483 83 514 c 0,48,49
 107 545 107 545 137 541 c 0,50,51
 163 539 163 539 169 525 c 256,52,53
 175 511 175 511 171 489 c 0,54,55
 147 391 147 391 169 328 c 256,56,57
 191 265 191 265 253 207 c 1,42,43
504 310 m 1,58,59
 409 282 409 282 323 303 c 0,60,61
 237 325 237 325 180 437 c 1,62,63
 188 350 188 350 218 285 c 0,64,65
 247 221 247 221 320 190 c 1,66,67
 367 181 367 181 408 204 c 0,68,69
 449 228 449 228 504 310 c 1,58,59
592 339 m 1,70,71
 640 364 640 364 672 357 c 0,72,73
 704 351 704 351 736 305 c 1,74,75
 700 262 700 262 629 177 c 1,76,77
 604 213 604 213 566 223 c 0,78,79
 528 234 528 234 457 217 c 1,80,81
 484 253 484 253 516 282 c 256,82,83
 548 311 548 311 592 339 c 1,70,71
201 479 m 1,84,85
 209 423 209 423 241 385 c 0,86,87
 272 347 272 347 351 345 c 1,88,89
 323 377 323 377 291 414 c 0,90,91
 260 450 260 450 257 484 c 0,92,93
 255 509 255 509 282 532 c 0,94,95
 310 554 310 554 361 565 c 1,96,97
 296 594 296 594 251 576 c 256,98,99
 206 558 206 558 201 479 c 1,84,85
490 614 m 0,100,101
 512 589 512 589 503 576 c 0,102,103
 493 563 493 563 476 537 c 1,104,105
 440 566 440 566 397 588 c 0,106,107
 353 610 353 610 308 611 c 1,108,109
 362 627 362 627 415 631 c 0,110,111
 423 631 423 631 430 631 c 0,112,113
 471 631 471 631 490 614 c 0,100,101
299 457 m 1,114,115
 281 490 281 490 293 517 c 0,116,117
 304 545 304 545 355 545 c 0,118,119
 373 545 373 545 407 543 c 1,120,121
 407 535 407 535 407 513 c 1,122,123
 372 506 372 506 341 494 c 0,124,125
 311 482 311 482 299 457 c 1,114,115
448 513 m 1,126,127
 447 453 447 453 437 414 c 0,128,129
 426 376 426 376 391 360 c 1,130,131
 365 380 365 380 348 397 c 0,132,133
 331 413 331 413 315 440 c 1,134,135
 348 448 348 448 385 460 c 0,136,137
 421 473 421 473 448 513 c 1,126,127
383 327 m 1,138,139
 458 309 458 309 552 364 c 0,140,141
 647 419 647 419 651 455 c 0,142,143
 652 488 652 488 596 510 c 0,144,145
 539 532 539 532 497 534 c 1,146,147
 495 459 495 459 468 412 c 256,148,149
 441 365 441 365 383 327 c 1,138,139
EndSplineSet
Validated: 41
EndChar

StartChar: E
Encoding: 69 69 29
Width: 737
Flags: W
LayerCount: 2
Fore
SplineSet
129 102 m 1,0,1
 135 128 135 128 145 153 c 0,2,3
 156 178 156 178 175 198 c 0,4,5
 185 208 185 208 195 212 c 0,6,7
 205 215 205 215 232 212 c 0,8,9
 262 210 262 210 290 214 c 0,10,11
 318 217 318 217 346 227 c 0,12,13
 350 229 350 229 353 228 c 0,14,15
 355 227 355 227 354 221 c 0,16,17
 348 194 348 194 325 171 c 0,18,19
 303 148 303 148 277 138 c 0,20,21
 256 131 256 131 242 129 c 0,22,23
 227 127 227 127 208 123 c 0,24,25
 181 120 181 120 165 117 c 0,26,27
 150 114 150 114 129 102 c 1,0,1
323 257 m 1,28,29
 253 234 253 234 158 257 c 256,30,31
 63 280 63 280 3 357 c 1,32,33
 36 346 36 346 68 343 c 0,34,35
 99 340 99 340 133 341 c 0,36,37
 153 344 153 344 165 343 c 0,38,39
 178 343 178 343 201 337 c 1,40,41
 223 310 223 310 250 287 c 256,42,43
 277 264 277 264 323 257 c 1,28,29
122 457 m 0,44,45
 134 458 134 458 143 455 c 0,46,47
 152 453 152 453 157 442 c 0,48,49
 163 423 163 423 172 405 c 256,50,51
 181 387 181 387 190 369 c 1,52,53
 176 374 176 374 164 376 c 0,54,55
 151 377 151 377 138 376 c 0,56,57
 111 378 111 378 91 401 c 0,58,59
 70 425 70 425 45 479 c 1,60,61
 50 481 50 481 68 470 c 0,62,63
 87 459 87 459 122 457 c 0,44,45
378 405 m 1,64,65
 358 381 358 381 350 352 c 256,66,67
 342 323 342 323 355 279 c 1,68,69
 320 279 320 279 294 293 c 256,70,71
 268 307 268 307 239 344 c 0,72,73
 205 394 205 394 188 450 c 0,74,75
 172 506 172 506 176 572 c 1,76,77
 229 532 229 532 280 503 c 0,78,79
 331 475 331 475 378 405 c 1,64,65
313 531 m 1,80,81
 322 558 322 558 350 585 c 0,82,83
 377 611 377 611 412 636 c 1,84,85
 426 615 426 615 438 595 c 0,86,87
 451 575 451 575 460 553 c 0,88,89
 466 541 466 541 468 528 c 0,90,91
 470 514 470 514 457 499 c 0,92,93
 448 490 448 490 449 485 c 0,94,95
 449 480 449 480 445 481 c 0,96,97
 441 480 441 480 428 484 c 0,98,99
 416 488 416 488 376 486 c 0,100,101
 366 484 366 484 362 487 c 0,102,103
 357 490 357 490 352 497 c 0,104,105
 342 506 342 506 329 516 c 256,106,107
 316 526 316 526 313 531 c 1,80,81
480 486 m 1,108,109
 509 526 509 526 544 550 c 256,110,111
 579 574 579 574 663 594 c 1,112,113
 656 575 656 575 654 556 c 0,114,115
 651 536 651 536 651 518 c 0,116,117
 649 489 649 489 635 458 c 0,118,119
 620 427 620 427 578 408 c 1,120,121
 585 435 585 435 587 465 c 0,122,123
 588 495 588 495 587 522 c 0,124,125
 587 529 587 529 583 529 c 0,126,127
 580 528 580 528 579 523 c 0,128,129
 578 514 578 514 549 499 c 0,130,131
 521 484 521 484 500 477 c 0,132,133
 494 476 494 476 489 478 c 256,134,135
 484 480 484 480 480 486 c 1,108,109
535 343 m 0,136,137
 522 305 522 305 488 281 c 0,138,139
 454 256 454 256 418 255 c 0,140,141
 403 253 403 253 395 257 c 0,142,143
 388 261 388 261 382 270 c 0,144,145
 367 317 367 317 379 351 c 0,146,147
 392 385 392 385 425 403 c 0,148,149
 457 419 457 419 492 431 c 0,150,151
 526 444 526 444 553 467 c 1,152,153
 555 436 555 436 552 403 c 0,154,155
 548 371 548 371 535 343 c 0,136,137
671 336 m 0,156,157
 643 302 643 302 602 280 c 0,158,159
 560 258 560 258 509 268 c 1,160,161
 532 284 532 284 546 304 c 256,162,163
 560 324 560 324 570 352 c 1,164,165
 596 365 596 365 648 392 c 0,166,167
 668 404 668 404 688 412 c 0,168,169
 709 420 709 420 732 420 c 1,170,171
 720 404 720 404 703 381 c 0,172,173
 686 357 686 357 671 336 c 0,156,157
474 239 m 0,174,175
 483 241 483 241 500 238 c 256,176,177
 517 235 517 235 553 242 c 1,178,179
 571 233 571 233 586 206 c 0,180,181
 600 179 600 179 602 152 c 1,182,183
 581 162 581 162 558 165 c 0,184,185
 534 169 534 169 512 170 c 0,186,187
 466 173 466 173 437 186 c 0,188,189
 409 198 409 198 397 227 c 1,190,191
 437 226 437 226 449 232 c 256,192,193
 461 238 461 238 474 239 c 0,174,175
382 446 m 1,194,195
 372 457 372 457 372 460 c 0,196,197
 373 462 373 462 378 463 c 0,198,199
 397 464 397 464 414 464 c 0,200,201
 430 463 430 463 456 450 c 1,202,203
 440 440 440 440 417 439 c 0,204,205
 395 439 395 439 382 446 c 1,194,195
410 414 m 0,206,207
 404 411 404 411 403 412 c 0,208,209
 401 413 401 413 399 416 c 0,210,211
 398 418 398 418 395 424 c 1,212,213
 402 424 402 424 409 423 c 256,214,215
 416 422 416 422 419 421 c 1,216,217
 418 419 418 419 415 417 c 0,218,219
 412 416 412 416 410 414 c 0,206,207
EndSplineSet
Validated: 33
EndChar

StartChar: F
Encoding: 70 70 30
Width: 737
Flags: W
LayerCount: 2
Fore
SplineSet
449 255 m 0,0,1
 443 256 443 256 440 251 c 0,2,3
 436 247 436 247 437 242 c 0,4,5
 464 222 464 222 480 188 c 0,6,7
 497 154 497 154 483 121 c 256,8,9
 469 88 469 88 424 78 c 0,10,11
 410 75 410 75 397 75 c 0,12,13
 369 75 369 75 350 92 c 0,14,15
 321 116 321 116 321 150 c 0,16,17
 322 184 322 184 336 219 c 0,18,19
 336 221 336 221 330 225 c 0,20,21
 324 228 324 228 321 226 c 0,22,23
 314 198 314 198 305 174 c 0,24,25
 295 149 295 149 256 132 c 0,26,27
 218 115 218 115 180 144 c 0,28,29
 141 174 141 174 145 215 c 256,30,31
 149 256 149 256 182 278 c 256,32,33
 215 300 215 300 249 302 c 1,34,35
 252 307 252 307 250 313 c 0,36,37
 249 319 249 319 245 320 c 0,38,39
 206 307 206 307 166 314 c 256,40,41
 126 321 126 321 111 354 c 0,42,43
 104 371 104 371 104 389 c 0,44,45
 104 406 104 406 111 424 c 0,46,47
 125 459 125 459 163 470 c 0,48,49
 200 481 200 481 226 464 c 0,50,51
 252 448 252 448 273 422 c 0,52,53
 276 421 276 421 281 427 c 0,54,55
 286 432 286 432 285 435 c 0,56,57
 256 453 256 453 244 492 c 0,58,59
 233 531 233 531 250 560 c 0,60,61
 266 588 266 588 306 597 c 0,62,63
 317 599 317 599 328 599 c 0,64,65
 354 600 354 600 376 584 c 0,66,67
 407 562 407 562 405 522 c 0,68,69
 404 481 404 481 391 453 c 0,70,71
 393 450 393 450 399 447 c 0,72,73
 405 445 405 445 409 447 c 0,74,75
 413 483 413 483 439 514 c 0,76,77
 464 544 464 544 492 548 c 0,78,79
 519 551 519 551 554 520 c 0,80,81
 590 490 590 490 584 448 c 0,82,83
 577 406 577 406 538 387 c 0,84,85
 500 369 500 369 476 369 c 0,86,87
 471 367 471 367 472 360 c 0,88,89
 474 353 474 353 480 352 c 0,90,91
 521 370 521 370 563 356 c 0,92,93
 604 343 604 343 616 314 c 0,94,95
 622 301 622 301 622 286 c 0,96,97
 622 268 622 268 614 246 c 0,98,99
 599 207 599 207 565 199 c 0,100,101
 532 192 532 192 506 205 c 0,102,103
 481 219 481 219 449 255 c 0,0,1
405 358 m 0,104,105
 391 382 391 382 363 380 c 0,106,107
 334 379 334 379 321 352 c 256,108,109
 308 325 308 325 327 305 c 0,110,111
 345 284 345 284 374 286 c 0,112,113
 402 287 402 287 411 311 c 256,114,115
 420 335 420 335 405 358 c 0,104,105
EndSplineSet
Validated: 33
EndChar

StartChar: G
Encoding: 71 71 31
Width: 737
Flags: W
LayerCount: 2
Fore
SplineSet
156 197 m 1,0,1
 188 231 188 231 285 331 c 1,2,3
 285 331 285 331 226 362 c 256,4,5
 167 393 167 393 119 417 c 1,6,7
 157 414 157 414 271 404 c 1,8,9
 271 404 271 404 253 466 c 256,10,11
 235 528 235 528 216 579 c 1,12,13
 255 533 255 533 281 508 c 256,14,15
 307 483 307 483 337 451 c 1,16,17
 349 495 349 495 384 629 c 1,18,19
 384 629 384 629 406 573 c 256,20,21
 428 517 428 517 442 475 c 1,22,23
 442 475 442 475 499 501 c 256,24,25
 556 527 556 527 602 552 c 1,26,27
 571 510 571 510 481 382 c 1,28,29
 481 382 481 382 529 370 c 256,30,31
 577 358 577 358 631 343 c 1,32,33
 631 343 631 343 583 325 c 0,34,35
 534 307 534 307 491 293 c 1,36,37
 491 293 491 293 501 266 c 256,38,39
 511 239 511 239 538 168 c 1,40,41
 507 191 507 191 414 258 c 1,42,43
 387 225 387 225 305 125 c 1,44,45
 309 163 309 163 321 278 c 1,46,47
 280 258 280 258 156 197 c 1,0,1
216 445 m 1,48,49
 162 447 162 447 0 453 c 1,50,51
 53 421 53 421 214 323 c 1,52,53
 172 275 172 275 46 129 c 1,54,55
 103 145 103 145 272 193 c 1,56,57
 266 149 266 149 248 17 c 1,58,59
 292 62 292 62 424 197 c 1,60,61
 473 163 473 163 619 59 c 1,62,63
 600 111 600 111 544 269 c 1,64,65
 592 289 592 289 736 350 c 1,66,67
 687 363 687 363 539 402 c 1,68,69
 578 458 578 458 696 626 c 1,70,71
 637 603 637 603 461 534 c 1,72,73
 441 581 441 581 382 722 c 1,74,75
 365 675 365 675 315 534 c 1,76,77
 275 572 275 572 153 685 c 1,78,79
 169 625 169 625 216 445 c 1,48,49
EndSplineSet
Validated: 9
EndChar

StartChar: a
Encoding: 97 97 32
Width: 737
Flags: W
LayerCount: 2
Fore
SplineSet
0 0 m 1,0,1
 0 246 0 246 0 737 c 1,2,3
 184 737 184 737 737 737 c 1,4,5
 553 553 553 553 0 0 c 1,0,1
EndSplineSet
Validated: 1
EndChar

StartChar: b
Encoding: 98 98 33
Width: 737
Flags: W
LayerCount: 2
Fore
SplineSet
10 25 m 1,0,1
 55 108 55 108 115 141 c 0,2,3
 174 173 174 173 286 170 c 1,4,5
 286 243 286 243 286 315 c 0,6,7
 286 388 286 388 286 475 c 1,8,9
 346 515 346 515 466 595 c 1,10,11
 407 619 407 619 351 615 c 256,12,13
 295 611 295 611 245 583 c 0,14,15
 185 548 185 548 150 513 c 0,16,17
 116 478 116 478 68 403 c 1,18,19
 73 492 73 492 100 556 c 0,20,21
 126 620 126 620 159 653 c 0,22,23
 226 719 226 719 348 735 c 0,24,25
 376 739 376 739 404 739 c 0,26,27
 494 739 494 739 572 698 c 1,28,29
 667 638 667 638 698 561 c 256,30,31
 729 484 729 484 726 404 c 0,32,33
 724 319 724 319 665 252 c 256,34,35
 606 185 606 185 511 144 c 1,36,37
 562 199 562 199 584 243 c 0,38,39
 606 286 606 286 607 352 c 0,40,41
 605 450 605 450 571 501 c 0,42,43
 538 552 538 552 492 576 c 1,44,45
 467 557 467 557 417 519 c 1,46,47
 417 424 417 424 417 141 c 1,48,49
 464 119 464 119 498 108 c 0,50,51
 533 97 533 97 562 97 c 256,52,53
 591 97 591 97 639 121 c 256,54,55
 687 145 687 145 728 189 c 1,56,57
 728 186 728 186 728 182 c 0,58,59
 728 128 728 128 688 84 c 0,60,61
 646 37 646 37 606 21 c 0,62,63
 547 2 547 2 489 2 c 0,64,65
 484 2 484 2 479 2 c 0,66,67
 415 4 415 4 373 17 c 0,68,69
 342 24 342 24 312 32 c 0,70,71
 282 39 282 39 249 46 c 0,72,73
 211 54 211 54 140 54 c 0,74,75
 68 54 68 54 10 25 c 1,0,1
EndSplineSet
Validated: 33
EndChar

StartChar: c
Encoding: 99 99 34
Width: 737
Flags: W
LayerCount: 2
Fore
SplineSet
0 0 m 1,0,1
 0 59 0 59 0 175 c 1,2,3
 39 175 39 175 116 175 c 1,4,5
 116 117 116 117 116 0 c 1,6,7
 78 0 78 0 0 0 c 1,0,1
154 310 m 1,8,9
 193 310 193 310 271 310 c 1,10,11
 271 207 271 207 271 0 c 1,12,13
 232 0 232 0 154 0 c 1,14,15
 154 103 154 103 154 310 c 1,8,9
310 0 m 1,16,17
 310 149 310 149 310 447 c 1,18,19
 349 447 349 447 426 447 c 1,20,21
 426 298 426 298 426 0 c 1,22,23
 388 0 388 0 310 0 c 1,16,17
465 0 m 1,24,25
 465 194 465 194 465 582 c 1,26,27
 504 582 504 582 582 582 c 1,28,29
 582 388 582 388 582 0 c 1,30,31
 543 0 543 0 465 0 c 1,24,25
621 1 m 1,32,33
 621 240 621 240 621 718 c 1,34,35
 660 718 660 718 737 718 c 1,36,37
 737 479 737 479 737 1 c 1,38,39
 698 1 698 1 621 1 c 1,32,33
EndSplineSet
Validated: 1
EndChar

StartChar: d
Encoding: 100 100 35
Width: 737
Flags: W
LayerCount: 2
Fore
SplineSet
621 0 m 1,0,1
 621 59 621 59 621 175 c 1,2,3
 660 175 660 175 737 175 c 1,4,5
 737 117 737 117 737 0 c 1,6,7
 698 0 698 0 621 0 c 1,0,1
583 0 m 1,8,9
 544 0 544 0 466 0 c 1,10,11
 466 103 466 103 466 310 c 1,12,13
 505 310 505 310 583 310 c 1,14,15
 583 207 583 207 583 0 c 1,8,9
311 0 m 1,16,17
 311 149 311 149 311 447 c 1,18,19
 350 447 350 447 427 447 c 1,20,21
 427 298 427 298 427 0 c 1,22,23
 388 0 388 0 311 0 c 1,16,17
155 0 m 1,24,25
 155 194 155 194 155 582 c 1,26,27
 194 582 194 582 272 582 c 1,28,29
 272 388 272 388 272 0 c 1,30,31
 233 0 233 0 155 0 c 1,24,25
0 1 m 1,32,33
 0 240 0 240 0 718 c 1,34,35
 39 718 39 718 116 718 c 1,36,37
 116 479 116 479 116 1 c 1,38,39
 78 1 78 1 0 1 c 1,32,33
EndSplineSet
Validated: 1
EndChar

StartChar: e
Encoding: 101 101 36
Width: 737
Flags: W
LayerCount: 2
Fore
SplineSet
369 736 m 0,0,1
 431 736 431 736 483 721 c 0,2,3
 536 705 536 705 577 677 c 0,4,5
 655 625 655 625 696 541 c 0,6,7
 737 458 737 458 737 368 c 0,8,9
 737 266 737 266 690 183 c 0,10,11
 644 101 644 101 566 53 c 0,12,13
 524 28 524 28 474 14 c 256,14,15
 424 0 424 0 369 0 c 0,16,17
 313 0 313 0 264 14 c 0,18,19
 214 28 214 28 171 53 c 0,20,21
 93 101 93 101 47 183 c 0,22,23
 0 266 0 266 0 368 c 0,24,25
 0 471 0 471 47 553 c 0,26,27
 93 635 93 635 171 683 c 0,28,29
 214 709 214 709 264 722 c 0,30,31
 313 736 313 736 369 736 c 0,0,1
EndSplineSet
Validated: 1
EndChar

StartChar: f
Encoding: 102 102 37
Width: 737
Flags: W
LayerCount: 2
Fore
SplineSet
150 683 m 0,0,1
 170 683 170 683 185 673 c 0,2,3
 199 664 199 664 208 649 c 0,4,5
 231 613 231 613 235 560 c 256,6,7
 239 507 239 507 239 476 c 0,8,9
 239 389 239 389 223 367 c 0,10,11
 207 346 207 346 188 348 c 0,12,13
 178 350 178 350 168 354 c 0,14,15
 158 357 158 357 150 357 c 0,16,17
 119 357 119 357 96 370 c 0,18,19
 73 382 73 382 56 400 c 0,20,21
 25 435 25 435 14 478 c 0,22,23
 2 520 2 520 2 535 c 0,24,25
 2 636 2 636 26 663 c 0,26,27
 51 691 51 691 82 690 c 0,28,29
 100 690 100 690 117 686 c 0,30,31
 135 683 135 683 150 683 c 0,0,1
735 312 m 0,32,33
 735 298 735 298 703 284 c 0,34,35
 672 271 672 271 634 263 c 0,36,37
 613 258 613 258 593 256 c 0,38,39
 573 253 573 253 557 253 c 0,40,41
 542 253 542 253 527 260 c 0,42,43
 512 268 512 268 498 279 c 0,44,45
 473 301 473 301 456 329 c 256,46,47
 439 357 439 357 439 371 c 0,48,49
 439 387 439 387 447 404 c 0,50,51
 454 422 454 422 467 439 c 0,52,53
 490 471 490 471 524 495 c 256,54,55
 558 519 558 519 587 519 c 1,56,57
 602 511 602 511 611 501 c 0,58,59
 619 491 619 491 623 480 c 0,60,61
 630 459 630 459 631 437 c 256,62,63
 632 415 632 415 646 401 c 0,64,65
 660 386 660 386 681 378 c 256,66,67
 702 370 702 370 717 356 c 0,68,69
 725 349 725 349 730 338 c 0,70,71
 735 328 735 328 735 312 c 0,32,33
467 152 m 1,72,73
 479 102 479 102 472 72 c 0,74,75
 464 41 464 41 445 25 c 0,76,77
 433 15 433 15 417 9 c 0,78,79
 401 4 401 4 385 2 c 0,80,81
 368 0 368 0 352 0 c 0,82,83
 339 0 339 0 327 1 c 0,84,85
 299 4 299 4 289 4 c 0,86,87
 274 4 274 4 257 9 c 0,88,89
 239 15 239 15 222 24 c 0,90,91
 190 40 190 40 166 67 c 256,92,93
 142 94 142 94 142 123 c 0,94,95
 142 136 142 136 169 174 c 256,96,97
 196 212 196 212 231 246 c 0,98,99
 254 269 254 269 278 284 c 0,100,101
 301 300 301 300 319 300 c 0,102,103
 334 300 334 300 348 292 c 256,104,105
 362 284 362 284 375 270 c 0,106,107
 399 246 399 246 421 211 c 256,108,109
 443 176 443 176 467 152 c 1,72,73
469 548 m 0,110,111
 453 533 453 533 414 547 c 0,112,113
 375 562 375 562 347 596 c 0,114,115
 336 611 336 611 328 629 c 0,116,117
 321 647 321 647 321 667 c 256,118,119
 321 687 321 687 344 702 c 256,120,121
 367 717 367 717 399 726 c 0,122,123
 437 737 437 737 476 737 c 0,124,125
 478 737 478 737 479 737 c 0,126,127
 516 737 516 737 528 726 c 0,128,129
 541 712 541 712 534 680 c 0,130,131
 526 647 526 647 511 615 c 0,132,133
 500 593 500 593 489 575 c 256,134,135
 478 557 478 557 469 548 c 0,110,111
EndSplineSet
Validated: 33
EndChar

StartChar: g
Encoding: 103 103 38
Width: 737
Flags: W
LayerCount: 2
Fore
SplineSet
552 493 m 0,0,1
 552 475 552 475 571 450 c 0,2,3
 590 426 590 426 617 398 c 0,4,5
 656 358 656 358 696 317 c 256,6,7
 736 276 736 276 736 249 c 0,8,9
 736 203 736 203 675 157 c 256,10,11
 614 111 614 111 522 65 c 0,12,13
 490 49 490 49 445 36 c 0,14,15
 401 23 401 23 353 15 c 0,16,17
 276 1 276 1 204 1 c 0,18,19
 191 1 191 1 178 2 c 0,20,21
 92 4 92 4 63 34 c 0,22,23
 47 50 47 50 43 71 c 0,24,25
 40 92 40 92 44 116 c 0,26,27
 52 159 52 159 73 204 c 0,28,29
 93 249 93 249 93 279 c 0,30,31
 93 295 93 295 86 316 c 0,32,33
 78 337 78 337 67 361 c 0,34,35
 47 404 47 404 24 449 c 256,36,37
 1 494 1 494 1 524 c 0,38,39
 1 540 1 540 9 559 c 0,40,41
 17 577 17 577 31 596 c 0,42,43
 57 631 57 631 99 662 c 0,44,45
 140 693 140 693 185 708 c 0,46,47
 230 722 230 722 305 733 c 0,48,49
 343 739 343 739 381 739 c 0,50,51
 417 739 417 739 452 734 c 0,52,53
 491 728 491 728 525 715 c 0,54,55
 559 701 559 701 583 677 c 0,56,57
 599 661 599 661 602 642 c 0,58,59
 606 624 606 624 601 605 c 0,60,61
 594 570 594 570 573 539 c 256,62,63
 552 508 552 508 552 493 c 0,0,1
EndSplineSet
Validated: 33
EndChar

StartChar: h
Encoding: 104 104 39
Width: 737
Flags: W
LayerCount: 2
Fore
SplineSet
-262 368 m 1,0,1
 -84 492 -84 492 273 740 c 1,2,3
 432 705 432 705 909 599 c 1,4,5
 843 450 843 450 647 3 c 1,6,7
 553 3 553 3 271 3 c 1,8,9
 138 94 138 94 -262 368 c 1,0,1
EndSplineSet
Validated: 1
EndChar

StartChar: i
Encoding: 105 105 40
Width: 737
Flags: W
LayerCount: 2
Fore
SplineSet
90 3 m 1,0,1
 3 201 3 201 -171 599 c 1,2,3
 -12 634 -12 634 465 740 c 1,4,5
 598 647 598 647 999 368 c 1,6,7
 866 277 866 277 466 3 c 1,8,9
 372 3 372 3 90 3 c 1,0,1
EndSplineSet
Validated: 1
EndChar

StartChar: j
Encoding: 106 106 41
Width: 720
Flags: W
LayerCount: 2
Fore
SplineSet
0 0 m 5,0,1
 0 229 0 229 0 720 c 5,2,3
 167 720 167 720 720 720 c 5,4,5
 720 536.009990269 720 536.009990269 720 0 c 5,6,7
 536 0 536 0 0 0 c 5,0,1
EndSplineSet
Validated: 524289
EndChar

StartChar: k
Encoding: 107 107 42
Width: 737
Flags: W
LayerCount: 2
Fore
SplineSet
738 369 m 0,0,1
 738 315 738 315 724 266 c 0,2,3
 709 216 709 216 683 174 c 0,4,5
 634 96 634 96 552 48 c 0,6,7
 469 0 469 0 369 0 c 256,8,9
 269 0 269 0 186 48 c 0,10,11
 104 96 104 96 55 174 c 0,12,13
 29 216 29 216 14 266 c 0,14,15
 0 315 0 315 0 369 c 256,16,17
 0 423 0 423 14 472 c 0,18,19
 29 522 29 522 55 564 c 0,20,21
 104 642 104 642 186 690 c 0,22,23
 269 738 269 738 369 738 c 0,24,25
 423 738 423 738 472 724 c 0,26,27
 522 709 522 709 564 683 c 0,28,29
 642 634 642 634 690 552 c 0,30,31
 738 469 738 469 738 369 c 0,0,1
91 370 m 256,32,33
 91 247 91 247 168 170 c 256,34,35
 245 93 245 93 368 93 c 256,36,37
 491 93 491 93 566 170 c 0,38,39
 642 248 642 248 642 371 c 256,40,41
 642 494 642 494 566 572 c 0,42,43
 490 649 490 649 367 649 c 256,44,45
 244 649 244 649 168 571 c 0,46,47
 91 493 91 493 91 370 c 256,32,33
380 480 m 0,48,49
 380 433 380 433 380 340 c 1,50,51
 413 340 413 340 480 340 c 0,52,53
 510 340 510 340 525 325 c 0,54,55
 541 310 541 310 541 290 c 0,56,57
 540 268 540 268 525 254 c 256,58,59
 510 240 510 240 480 240 c 256,60,61
 450 240 450 240 420 240 c 256,62,63
 390 240 390 240 360 240 c 256,64,65
 330 240 330 240 305 265 c 256,66,67
 280 290 280 290 280 320 c 0,68,69
 280 373 280 373 280 480 c 0,70,71
 280 510 280 510 295 525 c 0,72,73
 311 540 311 540 331 540 c 0,74,75
 348 538 348 538 364 524 c 256,76,77
 380 510 380 510 380 480 c 0,48,49
EndSplineSet
Validated: 1
EndChar

StartChar: l
Encoding: 108 108 43
Width: 737
Flags: W
LayerCount: 2
Fore
SplineSet
737 369 m 0,0,1
 737 323 737 323 722 276 c 0,2,3
 706 229 706 229 679 186 c 0,4,5
 628 108 628 108 545 54 c 0,6,7
 461 1 461 1 369 1 c 0,8,9
 276 1 276 1 193 44 c 0,10,11
 109 87 109 87 58 165 c 0,12,13
 31 208 31 208 15 259 c 0,14,15
 0 310 0 310 0 369 c 0,16,17
 0 422 0 422 15 472 c 0,18,19
 29 521 29 521 56 563 c 0,20,21
 104 642 104 642 187 690 c 256,22,23
 270 738 270 738 369 738 c 0,24,25
 425 738 425 738 475 723 c 0,26,27
 525 707 525 707 567 680 c 0,28,29
 646 629 646 629 692 546 c 0,30,31
 737 462 737 462 737 369 c 0,0,1
131 369 m 0,32,33
 131 254 131 254 201 193 c 256,34,35
 271 132 271 132 369 132 c 256,36,37
 467 132 467 132 537 193 c 0,38,39
 606 254 606 254 606 369 c 0,40,41
 606 476 606 476 537 542 c 0,42,43
 467 607 467 607 369 607 c 256,44,45
 271 607 271 607 201 542 c 0,46,47
 131 476 131 476 131 369 c 0,32,33
392 500 m 0,48,49
 392 457 392 457 392 369 c 1,50,51
 428 369 428 369 499 369 c 0,52,53
 544 369 544 369 563 347 c 0,54,55
 583 325 583 325 583 298 c 256,56,57
 583 271 583 271 563 249 c 0,58,59
 544 227 544 227 499 227 c 0,60,61
 444 227 444 227 333 227 c 0,62,63
 297 227 297 227 274 251 c 0,64,65
 250 274 250 274 250 310 c 0,66,67
 250 373 250 373 250 500 c 0,68,69
 250 545 250 545 272 564 c 256,70,71
 294 583 294 583 321 583 c 256,72,73
 348 583 348 583 370 564 c 256,74,75
 392 545 392 545 392 500 c 0,48,49
EndSplineSet
Validated: 1
EndChar

StartChar: m
Encoding: 109 109 44
Width: 737
Flags: W
LayerCount: 2
Fore
SplineSet
275 36 m 1,0,1
 187 67 187 67 113 115 c 0,2,3
 38 164 38 164 8 254 c 1,4,5
 61 179 61 179 107 157 c 0,6,7
 154 136 154 136 214 121 c 1,8,9
 222 99 222 99 237 78 c 0,10,11
 252 58 252 58 275 36 c 1,0,1
199 180 m 1,12,13
 109 202 109 202 51 274 c 0,14,15
 -1 337 -1 337 -1 426 c 0,16,17
 -1 438 -1 438 0 450 c 1,18,19
 15 405 15 405 56 359 c 0,20,21
 97 312 97 312 127 290 c 1,22,23
 110 318 110 318 96 350 c 0,24,25
 83 382 83 382 74 416 c 0,26,27
 59 478 59 478 66 540 c 256,28,29
 73 602 73 602 112 648 c 1,30,31
 80 515 80 515 119 442 c 0,32,33
 158 370 158 370 226 347 c 1,34,35
 203 319 203 319 195 271 c 256,36,37
 187 223 187 223 199 180 c 1,12,13
250 724 m 1,38,39
 193 672 193 672 177 602 c 256,40,41
 161 532 161 532 222 413 c 1,42,43
 166 455 166 455 143 523 c 0,44,45
 119 591 119 591 141 645 c 0,46,47
 153 675 153 675 179 696 c 0,48,49
 206 717 206 717 250 724 c 1,38,39
298 440 m 1,50,51
 300 458 300 458 315 469 c 0,52,53
 329 480 329 480 341 478 c 0,54,55
 393 483 393 483 420 443 c 0,56,57
 446 404 446 404 409 344 c 1,58,59
 388 331 388 331 371 313 c 0,60,61
 355 296 355 296 343 277 c 0,62,63
 320 241 320 241 314 206 c 0,64,65
 308 170 308 170 319 150 c 1,66,67
 316 198 316 198 338 231 c 0,68,69
 361 264 361 264 388 286 c 0,70,71
 402 298 402 298 415 307 c 0,72,73
 428 317 428 317 437 325 c 0,74,75
 452 336 452 336 462 354 c 0,76,77
 473 372 473 372 478 396 c 0,78,79
 487 439 487 439 473 494 c 0,80,81
 460 549 460 549 416 601 c 1,82,83
 453 593 453 593 477 573 c 256,84,85
 501 553 501 553 514 526 c 0,86,87
 524 504 524 504 528 479 c 256,88,89
 532 454 532 454 531 429 c 0,90,91
 530 383 530 383 515 342 c 0,92,93
 499 302 499 302 480 287 c 1,94,95
 517 305 517 305 542 327 c 0,96,97
 568 349 568 349 585 374 c 0,98,99
 617 419 617 419 624 470 c 0,100,101
 630 520 630 520 627 565 c 1,102,103
 653 507 653 507 649 449 c 256,104,105
 645 391 645 391 623 344 c 0,106,107
 612 319 612 319 596 298 c 0,108,109
 581 278 581 278 563 264 c 1,110,111
 633 293 633 293 676 351 c 0,112,113
 719 408 719 408 724 456 c 1,114,115
 755 347 755 347 686 279 c 0,116,117
 617 210 617 210 497 156 c 0,118,119
 458 139 458 139 438 115 c 0,120,121
 419 92 419 92 418 28 c 1,122,123
 400 61 400 61 394 111 c 0,124,125
 388 162 388 162 408 207 c 1,126,127
 388 186 388 186 371 131 c 0,128,129
 355 76 355 76 381 9 c 1,130,131
 331 27 331 27 287 86 c 256,132,133
 243 145 243 145 245 220 c 0,134,135
 246 260 246 260 264 302 c 0,136,137
 283 343 283 343 326 382 c 0,138,139
 349 407 349 407 343 424 c 256,140,141
 337 441 337 441 309 443 c 0,142,143
 306 443 306 443 303 442 c 256,144,145
 300 441 300 441 298 440 c 1,50,51
463 31 m 1,146,147
 467 68 467 68 490 93 c 0,148,149
 514 117 514 117 570 139 c 0,150,151
 610 155 610 155 661 190 c 0,152,153
 711 226 711 226 738 265 c 1,154,155
 730 205 730 205 689 164 c 256,156,157
 648 123 648 123 611 111 c 256,158,159
 574 99 574 99 526 82 c 0,160,161
 477 65 477 65 463 31 c 1,146,147
692 466 m 1,162,163
 718 500 718 500 718 552 c 256,164,165
 718 604 718 604 695 645 c 0,166,167
 683 667 683 667 665 683 c 256,168,169
 647 699 647 699 624 704 c 1,170,171
 644 668 644 668 660 640 c 0,172,173
 675 613 675 613 683 574 c 0,174,175
 688 553 688 553 690 527 c 256,176,177
 692 501 692 501 692 466 c 1,162,163
569 457 m 1,178,179
 613 578 613 578 572 642 c 256,180,181
 531 706 531 706 442 709 c 1,182,183
 512 660 512 660 545 601 c 256,184,185
 578 542 578 542 569 457 c 1,178,179
365 436 m 1,186,187
 378 439 378 439 370 449 c 0,188,189
 361 459 361 459 344 454 c 1,190,191
 351 452 351 452 356 448 c 256,192,193
 361 444 361 444 365 436 c 1,186,187
EndSplineSet
Validated: 41
EndChar

StartChar: n
Encoding: 110 110 45
Width: 737
Flags: W
LayerCount: 2
Fore
SplineSet
246 328 m 1,0,1
 164 328 164 328 0 328 c 1,2,3
 123 465 123 465 369 738 c 1,4,5
 492 601 492 601 738 328 c 1,6,7
 718 328 718 328 676 328 c 0,8,9
 635 328 635 328 588 328 c 0,10,11
 563 328 563 328 538 328 c 0,12,13
 514 328 514 328 492 328 c 1,14,15
 492 219 492 219 492 0 c 1,16,17
 410 0 410 0 246 0 c 1,18,19
 246 109 246 109 246 328 c 1,0,1
EndSplineSet
Validated: 1
EndChar

StartChar: o
Encoding: 111 111 46
Width: 737
Flags: W
LayerCount: 2
Fore
SplineSet
279 496 m 1,0,1
 279 496 279 496 280 492 c 256,2,3
 281 488 281 488 281 488 c 1,4,5
 204 427 204 427 166 372 c 0,6,7
 127 316 127 316 118 267 c 0,8,9
 112 235 112 235 117 207 c 0,10,11
 122 178 122 178 135 152 c 0,12,13
 159 105 159 105 206 70 c 256,14,15
 253 35 253 35 308 14 c 1,16,17
 307 12 307 12 307 9 c 256,18,19
 307 6 307 6 306 3 c 0,20,21
 165 6 165 6 83 69 c 0,22,23
 2 132 2 132 2 211 c 0,24,25
 2 213 2 213 2 214 c 0,26,27
 2 295 2 295 71 377 c 256,28,29
 140 459 140 459 279 496 c 1,0,1
527 452 m 0,30,31
 455 389 455 389 422 333 c 0,32,33
 390 276 390 276 393 232 c 0,34,35
 399 182 399 182 445 143 c 0,36,37
 490 105 490 105 561 88 c 0,38,39
 599 80 599 80 642 79 c 0,40,41
 686 78 686 78 733 86 c 1,42,43
 733 86 733 86 734 82 c 256,44,45
 735 78 735 78 735 78 c 1,46,47
 681 53 681 53 622 43 c 0,48,49
 562 33 562 33 504 37 c 0,50,51
 395 44 395 44 308 92 c 256,52,53
 221 140 221 140 203 215 c 0,54,55
 191 265 191 265 217 324 c 0,56,57
 244 383 244 383 322 447 c 0,58,59
 362 480 362 480 402 512 c 0,60,61
 443 545 443 545 448 597 c 0,62,63
 451 640 451 640 410 675 c 0,64,65
 369 711 369 711 293 704 c 1,66,67
 293 704 293 704 293 708 c 0,68,69
 292 711 292 711 292 711 c 1,70,71
 353 727 353 727 402 731 c 0,72,73
 431 734 431 734 455 734 c 0,74,75
 473 734 473 734 490 732 c 0,76,77
 561 726 561 726 597 698 c 0,78,79
 633 669 633 669 637 636 c 0,80,81
 642 589 642 589 604 536 c 0,82,83
 565 483 565 483 527 452 c 0,30,31
705 129 m 1,84,85
 705 129 705 129 704 125 c 256,86,87
 703 121 703 121 703 121 c 1,88,89
 606 136 606 136 548 174 c 0,90,91
 491 212 491 212 486 262 c 0,92,93
 481 310 481 310 527 363 c 0,94,95
 572 416 572 416 670 460 c 1,96,97
 671 457 671 457 672 455 c 0,98,99
 674 453 674 453 674 453 c 1,100,101
 649 439 649 439 631 416 c 0,102,103
 612 393 612 393 603 364 c 0,104,105
 585 310 585 310 606 246 c 0,106,107
 627 181 627 181 705 129 c 1,84,85
EndSplineSet
Validated: 33
EndChar

StartChar: p
Encoding: 112 112 47
Width: 737
Flags: W
LayerCount: 2
Fore
SplineSet
0 0 m 1,0,1
 0 123 0 123 0 369 c 0,2,3
 0 423 0 423 14 472 c 0,4,5
 29 522 29 522 55 564 c 0,6,7
 104 642 104 642 186 690 c 0,8,9
 269 738 269 738 369 738 c 0,10,11
 423 738 423 738 472 724 c 0,12,13
 522 709 522 709 564 683 c 0,14,15
 642 634 642 634 690 552 c 0,16,17
 738 469 738 469 738 369 c 0,18,19
 738 246 738 246 738 0 c 1,20,21
 492 0 492 0 0 0 c 1,0,1
EndSplineSet
Validated: 1
EndChar

StartChar: q
Encoding: 113 113 48
Width: 737
Flags: W
LayerCount: 2
Fore
SplineSet
360 0 m 1,0,1
 229 102 229 102 152 266 c 0,2,3
 75 429 75 429 66 637 c 1,4,5
 122 642 122 642 165 652 c 0,6,7
 209 661 209 661 254 680 c 0,8,9
 278 690 278 690 304 704 c 256,10,11
 330 718 330 718 361 737 c 1,12,13
 430 694 430 694 497 669 c 256,14,15
 564 644 564 644 656 637 c 1,16,17
 646 430 646 430 569 266 c 256,18,19
 492 102 492 102 360 0 c 1,0,1
EndSplineSet
Validated: 1
EndChar

StartChar: r
Encoding: 114 114 49
Width: 737
Flags: W
LayerCount: 2
Fore
SplineSet
246 197 m 1,0,1
 192 229 192 229 181 256 c 0,2,3
 169 283 169 283 164 316 c 0,4,5
 160 338 160 338 168 362 c 256,6,7
 176 386 176 386 190 410 c 0,8,9
 217 455 217 455 254 495 c 0,10,11
 292 535 292 535 310 560 c 0,12,13
 341 598 341 598 349 648 c 0,14,15
 357 697 357 697 335 731 c 1,16,17
 368 715 368 715 388 682 c 256,18,19
 408 649 408 649 413 613 c 0,20,21
 417 573 417 573 407 542 c 0,22,23
 396 510 396 510 366 471 c 0,24,25
 344 443 344 443 334 418 c 0,26,27
 325 392 325 392 326 375 c 256,28,29
 327 358 327 358 337 341 c 0,30,31
 346 324 346 324 371 322 c 0,32,33
 404 321 404 321 410 356 c 0,34,35
 417 391 417 391 389 434 c 1,36,37
 417 414 417 414 440 383 c 256,38,39
 463 352 463 352 462 312 c 0,40,41
 461 290 461 290 452 267 c 0,42,43
 443 243 443 243 422 217 c 1,44,45
 450 237 450 237 463 257 c 256,46,47
 476 277 476 277 487 301 c 0,48,49
 503 333 503 333 500 362 c 0,50,51
 498 391 498 391 490 422 c 0,52,53
 474 478 474 478 476 506 c 0,54,55
 477 533 477 533 522 575 c 1,56,57
 493 525 493 525 509 495 c 0,58,59
 525 464 525 464 543 435 c 0,60,61
 566 397 566 397 591 363 c 0,62,63
 616 330 616 330 620 284 c 0,64,65
 622 268 622 268 622 252 c 0,66,67
 622 199 622 199 600 151 c 0,68,69
 571 90 571 90 528 58 c 0,70,71
 502 37 502 37 461 21 c 0,72,73
 421 6 421 6 358 6 c 0,74,75
 356 6 356 6 353 6 c 0,76,77
 297 6 297 6 266 16 c 0,78,79
 233 28 233 28 198 52 c 0,80,81
 133 102 133 102 108 182 c 0,82,83
 99 211 99 211 99 240 c 0,84,85
 99 291 99 291 125 342 c 1,86,87
 129 271 129 271 159 239 c 0,88,89
 190 207 190 207 246 197 c 1,0,1
EndSplineSet
Validated: 33
EndChar

StartChar: s
Encoding: 115 115 50
Width: 737
Flags: W
LayerCount: 2
Fore
SplineSet
20 26 m 0,0,1
 5 41 5 41 5 58 c 0,2,3
 5 71 5 71 12 85 c 0,4,5
 29 118 29 118 64 114 c 1,6,7
 94 152 94 152 154 227 c 1,8,9
 129 253 129 253 79 304 c 1,10,11
 91 316 91 316 116 341 c 1,12,13
 159 310 159 310 246 248 c 1,14,15
 277 205 277 205 339 117 c 1,16,17
 327 105 327 105 302 80 c 1,18,19
 277 105 277 105 226 155 c 1,20,21
 189 126 189 126 113 66 c 1,22,23
 117 27 117 27 82 12 c 0,24,25
 71 7 71 7 60 7 c 0,26,27
 38 7 38 7 20 26 c 0,0,1
563 677 m 1,28,29
 619 695 619 695 731 733 c 1,30,31
 712 676 712 676 676 564 c 1,32,33
 549 449 549 449 297 218 c 1,34,35
 286 234 286 234 265 267 c 1,36,37
 249 277 249 277 217 298 c 1,38,39
 332 424 332 424 563 677 c 1,28,29
EndSplineSet
Validated: 33
EndChar

StartChar: t
Encoding: 116 116 51
Width: 737
Flags: W
LayerCount: 2
Fore
SplineSet
373 0 m 0,0,1
 346 1 346 1 338 27 c 256,2,3
 330 53 330 53 350 69 c 1,4,5
 346 104 346 104 338 175 c 1,6,7
 311 175 311 175 259 176 c 1,8,9
 259 189 259 189 258 215 c 1,10,11
 297 221 297 221 375 234 c 1,12,13
 414 228 414 228 492 214 c 1,14,15
 492 201 492 201 492 175 c 1,16,17
 466 175 466 175 413 175 c 1,18,19
 409 140 409 140 400 69 c 1,20,21
 423 51 423 51 412 26 c 0,22,23
 402 0 402 0 373 0 c 0,0,1
317 623 m 1,24,25
 337 662 337 662 376 739 c 1,26,27
 395 700 395 700 435 623 c 1,28,29
 429 497 429 497 417 245 c 1,30,31
 403 248 403 248 375 253 c 1,32,33
 361 251 361 251 334 245 c 1,34,35
 328 371 328 371 317 623 c 1,24,25
EndSplineSet
Validated: 33
EndChar

StartChar: u
Encoding: 117 117 52
Width: 737
Flags: W
LayerCount: 2
Fore
SplineSet
61 19 m 1,0,1
 117 30 117 30 156 63 c 256,2,3
 195 96 195 96 224 141 c 0,4,5
 259 194 259 194 301 222 c 0,6,7
 344 250 344 250 432 230 c 1,8,9
 364 216 364 216 330 186 c 0,10,11
 295 156 295 156 260 109 c 0,12,13
 211 43 211 43 171 25 c 0,14,15
 147 14 147 14 112 14 c 0,16,17
 89 14 89 14 61 19 c 1,0,1
192 254 m 0,18,19
 245 291 245 291 299 304 c 0,20,21
 353 316 353 316 425 264 c 1,22,23
 381 273 381 273 352 269 c 0,24,25
 324 265 324 265 300 257 c 0,26,27
 275 248 275 248 240 227 c 256,28,29
 205 206 205 206 189 198 c 0,30,31
 151 178 151 178 109 171 c 0,32,33
 67 165 67 165 2 208 c 1,34,35
 53 198 53 198 100 209 c 0,36,37
 146 220 146 220 192 254 c 0,18,19
440 203 m 0,38,39
 492 218 492 218 534 244 c 0,40,41
 577 269 577 269 605 318 c 1,42,43
 596 240 596 240 557 204 c 0,44,45
 518 169 518 169 453 157 c 256,46,47
 388 145 388 145 345 115 c 256,48,49
 302 85 302 85 277 48 c 1,50,51
 287 127 287 127 333 157 c 0,52,53
 378 187 378 187 440 203 c 0,38,39
607 338 m 1,54,55
 612 359 612 359 613 382 c 256,56,57
 614 405 614 405 612 427 c 1,58,59
 632 445 632 445 649 448 c 256,60,61
 666 451 666 451 679 428 c 1,62,63
 686 427 686 427 695 425 c 0,64,65
 704 422 704 422 704 407 c 1,66,67
 696 409 696 409 689 406 c 256,68,69
 682 403 682 403 678 400 c 0,70,71
 664 389 664 389 645 373 c 0,72,73
 625 356 625 356 607 338 c 1,54,55
427 296 m 1,74,75
 412 306 412 306 400 313 c 256,76,77
 388 320 388 320 374 329 c 0,78,79
 359 339 359 339 348 353 c 0,80,81
 336 367 336 367 337 381 c 1,82,83
 349 379 349 379 373 374 c 1,84,85
 351 385 351 385 331 398 c 0,86,87
 312 410 312 410 295 425 c 0,88,89
 263 453 263 453 242 496 c 0,90,91
 222 539 222 539 219 613 c 1,92,93
 237 584 237 584 259 561 c 256,94,95
 281 538 281 538 303 524 c 1,96,97
 265 571 265 571 250 616 c 0,98,99
 236 660 236 660 242 726 c 1,100,101
 252 699 252 699 262 678 c 256,102,103
 272 657 272 657 284 639 c 0,104,105
 307 605 307 605 339 575 c 0,106,107
 372 545 372 545 424 504 c 1,108,109
 422 490 422 490 422 473 c 256,110,111
 422 456 422 456 426 442 c 1,112,113
 417 420 417 420 412 396 c 0,114,115
 408 371 408 371 419 336 c 0,116,117
 422 323 422 323 427 296 c 1,74,75
446 234 m 1,118,119
 454 262 454 262 452 285 c 0,120,121
 450 307 450 307 440 334 c 0,122,123
 430 367 430 367 432 389 c 256,124,125
 434 411 434 411 439 417 c 1,126,127
 446 404 446 404 452 396 c 0,128,129
 459 388 459 388 465 382 c 1,130,131
 437 455 437 455 445 520 c 0,132,133
 452 585 452 585 511 672 c 1,134,135
 506 636 506 636 507 600 c 256,136,137
 508 564 508 564 519 537 c 1,138,139
 520 591 520 591 536 639 c 0,140,141
 553 687 553 687 604 737 c 1,142,143
 594 705 594 705 588 680 c 256,144,145
 582 655 582 655 578 634 c 0,146,147
 572 594 572 594 574 559 c 0,148,149
 577 524 577 524 586 477 c 0,150,151
 595 432 595 432 593 398 c 0,152,153
 591 363 591 363 582 338 c 0,154,155
 564 289 564 289 526 266 c 256,156,157
 488 243 488 243 446 234 c 1,118,119
EndSplineSet
Validated: 33
EndChar

StartChar: v
Encoding: 118 118 53
Width: 737
Flags: W
LayerCount: 2
Fore
SplineSet
6 507 m 1,0,1
 104 618 104 618 201 671 c 0,2,3
 297 724 297 724 383 731 c 0,4,5
 399 733 399 733 414 733 c 0,6,7
 455 733 455 733 492 723 c 0,8,9
 543 710 543 710 585 682 c 0,10,11
 662 631 662 631 698 539 c 0,12,13
 721 483 721 483 721 421 c 0,14,15
 721 383 721 383 712 344 c 0,16,17
 693 257 693 257 628 170 c 0,18,19
 563 82 563 82 441 9 c 1,20,21
 513 125 513 125 540 222 c 0,22,23
 568 319 568 319 556 392 c 0,24,25
 534 526 534 526 388 563 c 0,26,27
 242 601 242 601 6 507 c 1,0,1
EndSplineSet
Validated: 33
EndChar

StartChar: w
Encoding: 119 119 54
Width: 737
Flags: W
LayerCount: 2
Fore
SplineSet
711 21 m 0,0,1
 706 22 706 22 700 27 c 0,2,3
 694 31 694 31 689 36 c 0,4,5
 585 139 585 139 477 246 c 0,6,7
 370 353 370 353 270 466 c 0,8,9
 256 483 256 483 249 495 c 0,10,11
 243 506 243 506 240 550 c 0,12,13
 239 598 239 598 214 624 c 0,14,15
 189 649 189 649 154 650 c 0,16,17
 125 649 125 649 104 630 c 0,18,19
 82 612 82 612 84 581 c 0,20,21
 85 545 85 545 96 532 c 0,22,23
 108 519 108 519 136 511 c 0,24,25
 153 509 153 509 163 513 c 256,26,27
 173 517 173 517 181 518 c 0,28,29
 185 520 185 520 191 519 c 0,30,31
 197 519 197 519 202 514 c 0,32,33
 210 505 210 505 203 487 c 256,34,35
 196 469 196 469 182 461 c 0,36,37
 139 445 139 445 100 461 c 256,38,39
 61 477 61 477 42 506 c 0,40,41
 20 536 20 536 20 573 c 0,42,43
 20 574 20 574 20 576 c 0,44,45
 20 611 20 611 32 643 c 1,46,47
 56 681 56 681 90 700 c 0,48,49
 123 719 123 719 171 719 c 0,50,51
 220 719 220 719 253 691 c 0,52,53
 287 663 287 663 302 616 c 0,54,55
 309 600 309 600 312 578 c 256,56,57
 315 556 315 556 316 537 c 0,58,59
 320 521 320 521 329 505 c 256,60,61
 338 489 338 489 350 473 c 0,62,63
 432 370 432 370 523 273 c 0,64,65
 613 176 613 176 692 78 c 0,66,67
 717 51 717 51 717 37 c 0,68,69
 717 36 717 36 717 36 c 2,70,71
 716 22 716 22 711 21 c 0,0,1
EndSplineSet
Validated: 33
EndChar

StartChar: x
Encoding: 120 120 55
Width: 720
Flags: W
LayerCount: 2
Fore
SplineSet
183.1484375 123.791992188 m 5,0,1
 98 147 98 147 61.6240234375 199.868164062 c 4,2,3
 24 253 24 253 1.3564453125 354.984375 c 5,4,5
 0 390 0 390 36.923828125 407.34765625 c 260,6,7
 73 425 73 425 113.98828125 415.251953125 c 5,8,9
 109 339 109 339 115.963867188 272.98046875 c 4,10,11
 124 206 124 206 183.1484375 123.791992188 c 5,0,1
400.5078125 320.404296875 m 5,12,13
 399 425 399 425 361.975585938 508.124023438 c 4,14,15
 325 592 325 592 221.6796875 682.01171875 c 5,16,17
 233 704 233 704 258.236328125 723.5078125 c 260,18,19
 284 743 284 743 311.587890625 747.219726562 c 4,20,21
 318 748 318 748 324.431640625 748.208007812 c 4,22,23
 333 748 333 748 342.215820312 746.232421875 c 4,24,25
 357 742 357 742 369.879882812 731.412109375 c 5,26,27
 424 652 424 652 443.98046875 544.6796875 c 4,28,29
 464 438 464 438 400.5078125 320.404296875 c 5,12,13
526.971679688 672.131835938 m 4,30,31
 595.29296875 569.048828125 595.29296875 569.048828125 602.059570312 464.65234375 c 4,32,33
 609 358 609 358 556.612304688 261.124023438 c 5,34,35
 556 345 556 345 535.864257812 404.383789062 c 260,36,37
 516 464 516 464 477.572265625 516.028320312 c 5,38,39
 476 556 476 556 466.704101562 595.068359375 c 4,40,41
 457 636 457 636 437.064453125 678.059570312 c 5,42,43
 463 693 463 693 489.427734375 690.904296875 c 4,44,45
 515 689 515 689 526.971679688 672.131835938 c 4,30,31
598.108398438 606.923828125 m 5,46,47
 612.556640625 608.231445312 612.556640625 608.231445312 622.807617188 603.959960938 c 4,48,49
 635 599 635 599 644.543945312 588.15234375 c 4,50,51
 657 571 657 571 676.16015625 534.799804688 c 4,52,53
 691 505 691 505 701.84765625 472.555664062 c 4,54,55
 719 418 719 418 718.643554688 353.99609375 c 4,56,57
 719 346 719 346 718.643554688 338.188476562 c 4,58,59
 716 264 716 264 675.171875 179.120117188 c 5,60,61
 671.03515625 235.046875 671.03515625 235.046875 664.303710938 276.931640625 c 4,62,63
 655 332 655 332 630.711914062 378.696289062 c 5,64,65
 638 436 638 436 628.736328125 498.244140625 c 260,66,67
 620 560 620 560 598.108398438 606.923828125 c 5,46,47
EndSplineSet
Validated: 524321
EndChar

StartChar: y
Encoding: 121 121 56
Width: 737
Flags: W
LayerCount: 2
Fore
SplineSet
620 9 m 1,0,1
 602 14 602 14 566 24 c 1,2,3
 576 54 576 54 597 115 c 0,4,5
 600 129 600 129 608 158 c 0,6,7
 610 164 610 164 613 175 c 0,8,9
 616 181 616 181 621 183 c 0,10,11
 625 185 625 185 633 183 c 0,12,13
 643 182 643 182 664 180 c 0,14,15
 669 178 669 178 671 175 c 256,16,17
 673 172 673 172 675 167 c 0,18,19
 679 151 679 151 688 119 c 0,20,21
 690 110 690 110 690 103 c 0,22,23
 690 95 690 95 688 89 c 0,24,25
 683 78 683 78 673 65 c 0,26,27
 655 46 655 46 620 9 c 1,0,1
448 58 m 1,28,29
 468 94 468 94 509 166 c 0,30,31
 517 180 517 180 528 185 c 0,32,33
 540 189 540 189 556 188 c 0,34,35
 569 186 569 186 596 182 c 1,36,37
 581 138 581 138 553 103 c 0,38,39
 525 67 525 67 482 48 c 1,40,41
 471 51 471 51 448 58 c 1,28,29
367 111 m 1,42,43
 402 104 402 104 441 128 c 0,44,45
 480 151 480 151 498 187 c 1,46,47
 458 188 458 188 441 183 c 0,48,49
 423 178 423 178 402 154 c 0,50,51
 395 146 395 146 386 136 c 0,52,53
 378 125 378 125 367 111 c 1,42,43
213 348 m 1,54,55
 351 316 351 316 627 251 c 0,56,57
 641 248 641 248 651 241 c 256,58,59
 661 234 661 234 664 214 c 0,60,61
 665 208 665 208 668 195 c 1,62,63
 583 201 583 201 412 212 c 0,64,65
 386 213 386 213 365 225 c 0,66,67
 344 236 344 236 324 249 c 0,68,69
 294 270 294 270 266 294 c 0,70,71
 239 319 239 319 213 348 c 1,54,55
127 560 m 1,72,73
 287 491 287 491 608 353 c 0,74,75
 624 349 624 349 633 338 c 256,76,77
 642 327 642 327 646 312 c 256,78,79
 650 297 650 297 657 267 c 1,80,81
 553 293 553 293 344 344 c 0,82,83
 320 348 320 348 295 363 c 0,84,85
 270 379 270 379 243 407 c 0,86,87
 211 443 211 443 180 479 c 256,88,89
 149 515 149 515 127 560 c 1,72,73
69 732 m 1,90,91
 122 717 122 717 227 687 c 1,92,93
 342 619 342 619 573 482 c 0,94,95
 593 472 593 472 606 457 c 0,96,97
 618 443 618 443 624 421 c 0,98,99
 628 403 628 403 636 369 c 1,100,101
 507 424 507 424 248 535 c 0,102,103
 235 540 235 540 222 550 c 0,104,105
 209 559 209 559 196 573 c 0,106,107
 159 607 159 607 128 648 c 0,108,109
 96 688 96 688 69 732 c 1,90,91
EndSplineSet
Validated: 41
EndChar

StartChar: z
Encoding: 122 122 57
Width: 737
Flags: W
LayerCount: 2
Fore
SplineSet
47 473 m 1,0,1
 48 451 48 451 50 429 c 0,2,3
 52 408 52 408 59 388 c 1,4,5
 78 386 78 386 94 366 c 0,6,7
 111 346 111 346 115 316 c 0,8,9
 121 284 121 284 109 253 c 0,10,11
 97 221 97 221 72 220 c 0,12,13
 52 219 52 219 38 231 c 0,14,15
 25 243 25 243 13 274 c 0,16,17
 8 294 8 294 7 315 c 0,18,19
 7 335 7 335 14 350 c 1,20,21
 11 381 11 381 13 398 c 0,22,23
 15 416 15 416 22 434 c 0,24,25
 29 451 29 451 36 461 c 0,26,27
 44 471 44 471 47 473 c 1,0,1
196 365 m 0,28,29
 174 364 174 364 155 385 c 0,30,31
 137 405 137 405 128 447 c 0,32,33
 125 467 125 467 127 485 c 0,34,35
 129 504 129 504 134 510 c 0,36,37
 137 521 137 521 137 531 c 0,38,39
 138 541 138 541 138 553 c 0,40,41
 141 581 141 581 157 606 c 0,42,43
 173 632 173 632 191 644 c 1,44,45
 186 625 186 625 185 605 c 256,46,47
 184 585 184 585 184 568 c 0,48,49
 184 559 184 559 187 556 c 0,50,51
 191 554 191 554 197 553 c 0,52,53
 220 545 220 545 235 518 c 0,54,55
 249 491 249 491 250 461 c 0,56,57
 251 442 251 442 249 427 c 256,58,59
 247 412 247 412 240 397 c 0,60,61
 233 384 233 384 222 375 c 0,62,63
 212 365 212 365 196 365 c 0,28,29
402 712 m 1,64,65
 393 688 393 688 387 664 c 0,66,67
 380 641 380 641 379 616 c 1,68,69
 403 596 403 596 412 575 c 0,70,71
 420 555 420 555 422 516 c 0,72,73
 420 481 420 481 403 452 c 256,74,75
 386 423 386 423 358 425 c 0,76,77
 333 423 333 423 315 452 c 0,78,79
 296 481 296 481 296 518 c 0,80,81
 295 538 295 538 301 561 c 256,82,83
 307 584 307 584 319 598 c 0,84,85
 324 604 324 604 328 613 c 0,86,87
 333 622 333 622 334 631 c 0,88,89
 344 654 344 654 362 678 c 256,90,91
 380 702 380 702 402 712 c 1,64,65
576 661 m 1,92,93
 591 640 591 640 591 604 c 0,94,95
 590 568 590 568 585 548 c 0,96,97
 583 544 583 544 583 540 c 256,98,99
 583 536 583 536 585 533 c 0,100,101
 595 511 595 511 595 489 c 0,102,103
 595 466 595 466 587 437 c 0,104,105
 578 408 578 408 553 385 c 0,106,107
 527 363 527 363 503 373 c 0,108,109
 472 385 472 385 466 424 c 0,110,111
 459 464 459 464 470 493 c 0,112,113
 478 520 478 520 496 541 c 256,114,115
 514 562 514 562 541 567 c 1,116,117
 552 588 552 588 561 613 c 256,118,119
 570 638 570 638 576 661 c 1,92,93
713 480 m 1,120,121
 716 442 716 442 723 366 c 1,122,123
 718 332 718 332 708 264 c 1,124,125
 679 250 679 250 621 224 c 1,126,127
 616 261 616 261 605 333 c 1,128,129
 632 356 632 356 685 401 c 1,130,131
 694 427 694 427 713 480 c 1,120,121
177 29 m 0,132,133
 143 34 143 34 122 55 c 0,134,135
 102 76 102 76 104 144 c 0,136,137
 107 203 107 203 139 257 c 256,138,139
 171 311 171 311 224 344 c 0,140,141
 253 362 253 362 287 371 c 0,142,143
 322 381 322 381 360 380 c 0,144,145
 442 379 442 379 499 338 c 0,146,147
 556 296 556 296 584 239 c 0,148,149
 599 209 599 209 606 176 c 0,150,151
 612 144 612 144 609 115 c 0,152,153
 605 71 605 71 581 50 c 0,154,155
 556 29 556 29 524 27 c 0,156,157
 501 29 501 29 480 37 c 0,158,159
 459 46 459 46 436 56 c 0,160,161
 400 72 400 72 358 73 c 0,162,163
 316 73 316 73 267 51 c 0,164,165
 247 42 247 42 225 35 c 0,166,167
 202 28 202 28 177 29 c 0,132,133
EndSplineSet
Validated: 33
EndChar

StartChar: dollar
Encoding: 36 36 58
Width: 720
Flags: W
LayerCount: 2
Fore
SplineSet
0 -360 m 5,0,1
 0 -131 0 -131 0 720 c 1,2,3
 167 720 167 720 720 720 c 1,4,5
 720 176.009990269 720 176.009990269 720 -360 c 1,6,7
 690 -360 690 -360 0 -360 c 5,0,1
EndSplineSet
Validated: 524289
EndChar

StartChar: braceleft
Encoding: 123 123 59
Width: 720
Flags: WO
LayerCount: 2
Fore
SplineSet
0 0 m 1,0,1
 0 720 l 1,2,-1
 60 860 l 1,3,-1
 180 720 l 1,4,-1
 540 720 l 1,5,-1
 660 860 l 5,6,7
 720 720 l 1,8,-1
 720 0 l 1,9,10
 360 0 360 0 0 0 c 1,0,1
EndSplineSet
Validated: 1
EndChar
